<svg width="32" height="32" viewBox="0 0 32 32" fill="none" xmlns="http://www.w3.org/2000/svg">
<path d="M9.875 12.3L15.75 8.9C15.9 8.825 16.075 8.825 16.225 8.9L22.125 12.3C22.275 12.375 22.375 12.55 22.375 12.7V19.5C22.375 19.675 22.275 19.825 22.125 19.925L16.25 23.325C16.1 23.4 15.925 23.4 15.775 23.325L9.875 19.925C9.725 19.85 9.625 19.675 9.625 19.5V12.7C9.625 12.55 9.725 12.375 9.875 12.3Z" fill="#8080F2"/>
<path d="M31.3002 15.4L24.2752 3.15C24.0252 2.7 23.5502 2.375 23.0252 2.375H8.9752C8.4752 2.375 8.0002 2.7 7.7252 3.15L0.700195 15.375C0.450195 15.825 0.450195 16.375 0.700195 16.825L7.7252 28.975C7.9752 29.425 8.4502 29.65 8.9752 29.65H23.0502C23.5502 29.65 24.0252 29.425 24.3002 29L31.3252 16.85C31.5752 16.35 31.5752 15.825 31.3002 15.4ZM25.4752 21.275C25.4752 21.45 25.3752 21.625 25.2002 21.7L16.2502 26.875C16.1002 26.975 15.9002 26.975 15.7502 26.875L6.7752 21.725C6.6252 21.625 6.5002 21.475 6.5002 21.3V10.925C6.5002 10.75 6.6002 10.575 6.7752 10.5L15.7502 5.325C15.9002 5.225 16.1002 5.225 16.2502 5.325L25.2252 10.5C25.3752 10.6 25.5002 10.75 25.5002 10.925V21.275H25.4752Z" fill="#4B32C3"/>
</svg>
