<svg width="32" height="32" viewBox="0 0 32 32" fill="none" xmlns="http://www.w3.org/2000/svg">
<path d="M15.9998 2.6665C14.2489 2.6665 12.5151 3.01138 10.8974 3.68144C9.27972 4.35151 7.80986 5.33363 6.57175 6.57175C4.07126 9.07223 2.6665 12.4636 2.6665 15.9998C2.6665 21.8932 6.49317 26.8932 11.7865 28.6665C12.4532 28.7732 12.6665 28.3598 12.6665 27.9998V25.7465C8.97317 26.5465 8.1865 23.9598 8.1865 23.9598C7.57317 22.4132 6.7065 21.9998 6.7065 21.9998C5.49317 21.1732 6.79984 21.1998 6.79984 21.1998C8.13317 21.2932 8.83984 22.5732 8.83984 22.5732C9.99984 24.5998 11.9598 23.9998 12.7198 23.6798C12.8398 22.8132 13.1865 22.2265 13.5598 21.8932C10.5998 21.5598 7.49317 20.4132 7.49317 15.3332C7.49317 13.8532 7.99984 12.6665 8.8665 11.7198C8.73317 11.3865 8.2665 9.99984 8.99984 8.19984C8.99984 8.19984 10.1198 7.83984 12.6665 9.55984C13.7198 9.2665 14.8665 9.11984 15.9998 9.11984C17.1332 9.11984 18.2798 9.2665 19.3332 9.55984C21.8798 7.83984 22.9998 8.19984 22.9998 8.19984C23.7332 9.99984 23.2665 11.3865 23.1332 11.7198C23.9998 12.6665 24.5065 13.8532 24.5065 15.3332C24.5065 20.4265 21.3865 21.5465 18.4132 21.8798C18.8932 22.2932 19.3332 23.1065 19.3332 24.3465V27.9998C19.3332 28.3598 19.5465 28.7865 20.2265 28.6665C25.5198 26.8798 29.3332 21.8932 29.3332 15.9998C29.3332 14.2489 28.9883 12.5151 28.3182 10.8974C27.6482 9.27972 26.666 7.80986 25.4279 6.57175C24.1898 5.33363 22.72 4.35151 21.1023 3.68144C19.4846 3.01138 17.7508 2.6665 15.9998 2.6665Z" fill="black"/>
</svg>
