<svg width="32" height="32" viewBox="0 0 32 32" fill="none" xmlns="http://www.w3.org/2000/svg">
<g clip-path="url(#clip0_42_32800)">
<path d="M6.33746 19.8863L25.8656 13.3672C25.4753 10.9268 25.1973 9.29654 24.8751 8.05241C24.528 6.71416 24.2528 6.35616 24.1448 6.23204C23.7683 5.80117 23.2994 5.4607 22.7732 5.23592C22.6212 5.17092 22.1951 5.01991 20.8165 5.10291C19.3578 5.19091 17.4431 5.48891 14.4108 5.96904C11.3796 6.44904 9.46584 6.75816 8.05209 7.12416C6.71459 7.47129 6.35546 7.74729 6.23134 7.85541C5.80114 8.23228 5.461 8.70088 5.23596 9.22666C5.17096 9.37854 5.01984 9.80467 5.10296 11.1839C5.19096 12.642 5.48909 14.5574 5.96921 17.5889C6.10334 18.4389 6.22434 19.1992 6.33746 19.8863Z" fill="url(#paint0_linear_42_32800)"/>
<path d="M0.953128 18.3824C0.0247532 12.5174 -0.440497 9.58492 0.565878 7.23067C1.09055 6.00266 1.88524 4.90868 2.89088 4.03005C4.81875 2.3468 7.75088 1.8828 13.6154 0.953672C19.4818 0.0232965 22.4141 -0.440578 24.77 0.565547C25.9975 1.09017 27.0911 1.88464 27.9694 2.88992C29.654 4.81817 30.1181 7.75067 31.0466 13.6167C31.976 19.4817 32.4403 22.415 31.4338 24.7684C30.9095 25.9963 30.1151 27.0903 29.1099 27.9689C27.182 29.6532 24.2488 30.1173 18.3834 31.0464C12.5189 31.9755 9.58563 32.4397 7.23175 31.4334C6.00425 30.9088 4.91072 30.1143 4.03238 29.109C2.34763 27.1808 1.8835 24.2483 0.954128 18.3824H0.953128ZM11.2984 28.798C12.869 28.703 14.8919 28.386 17.8861 27.9118C20.8814 27.4378 22.9011 27.1138 24.4259 26.7187C25.9015 26.3357 26.5818 25.9625 27.0209 25.5785C27.667 25.0137 28.1776 24.3105 28.5146 23.5212C28.7446 22.9852 28.8896 22.223 28.7976 20.7008C28.7026 19.1305 28.3855 17.1072 27.9114 14.1127C27.4371 11.1183 27.1139 9.09692 26.7189 7.57367C26.3356 6.09742 25.9615 5.41742 25.5784 4.9783C25.0137 4.33203 24.3107 3.8213 23.5215 3.48405C22.9853 3.25405 22.223 3.10905 20.7003 3.20092C19.1296 3.29592 17.1078 3.61305 14.1126 4.08717C11.1184 4.56217 9.0975 4.8853 7.57388 5.2803C6.09725 5.66342 5.418 6.03742 4.97888 6.42055C4.3324 6.98529 3.82149 7.68846 3.48413 8.4778C3.255 9.01392 3.11 9.77605 3.202 11.2983C3.297 12.8695 3.61325 14.8918 4.08838 17.8863C4.56263 20.8808 4.88575 22.9022 5.28088 24.4254C5.664 25.9017 6.03713 26.5817 6.42138 27.0208C6.98608 27.667 7.6891 28.1778 8.47825 28.515C9.0145 28.745 9.77575 28.89 11.2995 28.798H11.2984Z" fill="url(#paint1_linear_42_32800)"/>
</g>
<defs>
<linearGradient id="paint0_linear_42_32800" x1="750.728" y1="112.049" x2="1014.81" y2="1761.66" gradientUnits="userSpaceOnUse">
<stop stop-color="#66E3FF"/>
<stop offset="1" stop-color="#7064F9"/>
</linearGradient>
<linearGradient id="paint1_linear_42_32800" x1="1253.5" y1="-0.00049991" x2="1761.6" y2="3173.79" gradientUnits="userSpaceOnUse">
<stop stop-color="#66E3FF"/>
<stop offset="1" stop-color="#7064F9"/>
</linearGradient>
<clipPath id="clip0_42_32800">
<rect width="32" height="32" fill="white"/>
</clipPath>
</defs>
</svg>
