<svg width="32" height="32" viewBox="0 0 32 32" fill="none" xmlns="http://www.w3.org/2000/svg">
<g clip-path="url(#clip0_42_32817)">
<path d="M24.5 0H7.5C3.35786 0 0 3.35786 0 7.5V24.5C0 28.6421 3.35786 32 7.5 32H24.5C28.6421 32 32 28.6421 32 24.5V7.5C32 3.35786 28.6421 0 24.5 0Z" fill="#330000"/>
<path d="M15.4664 19.0415H10.5064L9.49301 22.1749C9.46639 22.2949 9.35976 22.3749 9.23976 22.3615H6.73301C6.58639 22.3615 6.54639 22.2815 6.58639 22.1215L10.8798 9.76155C10.9198 9.6283 10.9598 9.48155 11.013 9.32155C11.0664 9.04155 11.093 8.7483 11.093 8.45492C11.0798 8.3883 11.133 8.32155 11.1998 8.3083H14.653C14.7598 8.3083 14.813 8.3483 14.8264 8.41492L19.693 22.1483C19.733 22.2949 19.693 22.3615 19.5598 22.3615H16.773C16.6798 22.3749 16.5864 22.3083 16.5598 22.2149L15.4664 19.0415ZM11.2798 16.3349H14.6664C14.5864 16.0549 14.4798 15.7215 14.3598 15.3749C14.2398 15.0149 14.1198 14.6283 13.9998 14.2283C13.8664 13.8149 13.7464 13.4149 13.613 13.0015C13.4798 12.5883 13.3598 12.2015 13.253 11.8149C13.1464 11.4417 13.053 11.0949 12.9598 10.7749H12.933C12.813 11.3483 12.6664 11.9217 12.4798 12.4949C12.2798 13.1349 12.0798 13.8015 11.8664 14.4683C11.6942 15.0976 11.4985 15.7202 11.2798 16.3349ZM22.6664 10.6415C22.2264 10.6549 21.7998 10.4815 21.4798 10.1749C21.1731 9.84155 21.0131 9.40155 21.0264 8.9483C21.0131 8.49492 21.1864 8.0683 21.5064 7.76155C21.8264 7.45492 22.2531 7.29492 22.6931 7.29492C23.2131 7.29492 23.6131 7.45492 23.9064 7.76155C24.2019 8.08481 24.3597 8.51053 24.3464 8.9483C24.3598 9.40155 24.1998 9.84155 23.8798 10.1749C23.5731 10.4949 23.1198 10.6683 22.6664 10.6415ZM21.1731 22.2149V11.9483C21.1731 11.8149 21.2264 11.7615 21.3464 11.7615H23.9864C24.1064 11.7615 24.1598 11.8283 24.1598 11.9483V22.2149C24.1598 22.3615 24.1064 22.4283 23.9864 22.4283H21.3731C21.2398 22.4283 21.1731 22.3483 21.1731 22.2149Z" fill="#FF9A00"/>
</g>
<defs>
<clipPath id="clip0_42_32817">
<rect width="32" height="32" fill="white"/>
</clipPath>
</defs>
</svg>
