<svg width="32" height="32" viewBox="0 0 32 32" fill="none" xmlns="http://www.w3.org/2000/svg">
<g clip-path="url(#clip0_42_32781)">
<path d="M0 0H32V32H0V0Z" fill="#F7DF1E"/>
<path d="M8.41419 26.7414L10.8629 25.2594C11.3354 26.097 11.7652 26.8058 12.7961 26.8058C13.7842 26.8058 14.4073 26.4193 14.4073 24.9158V14.691H17.4144V24.9583C17.4144 28.0729 15.5887 29.4907 12.9249 29.4907C10.5193 29.4907 9.12294 28.2448 8.41406 26.7412M19.0478 26.4192L21.4963 25.0015C22.1409 26.0542 22.9787 26.8274 24.4607 26.8274C25.7068 26.8274 26.5013 26.2044 26.5013 25.3452C26.5013 24.3142 25.6851 23.9489 24.3103 23.3477L23.5587 23.0252C21.3891 22.1018 19.9499 20.9418 19.9499 18.493C19.9499 16.2375 21.6683 14.519 24.3534 14.519C26.2652 14.519 27.6399 15.185 28.6279 16.9249L26.2864 18.4287C25.7708 17.505 25.2126 17.1399 24.3533 17.1399C23.4726 17.1399 22.9141 17.6984 22.9141 18.4287C22.9141 19.3308 23.4726 19.6962 24.7613 20.2547L25.5131 20.5768C28.0693 21.6724 29.5084 22.7893 29.5084 25.3023C29.5084 28.009 27.3819 29.491 24.5251 29.491C21.7327 29.491 19.9283 28.1593 19.0477 26.4193" fill="black"/>
</g>
<defs>
<clipPath id="clip0_42_32781">
<rect width="32" height="32" fill="white"/>
</clipPath>
</defs>
</svg>
