<svg width="32" height="32" viewBox="0 0 32 32" fill="none" xmlns="http://www.w3.org/2000/svg">
<g clip-path="url(#clip0_42_32798)">
<path d="M30.5823 0H15.2134C15.2134 1.84001 15.9443 3.60465 17.2454 4.90573C18.5465 6.20681 20.3111 6.93775 22.1511 6.93775H24.9823V9.67125C24.9848 13.4994 28.0874 16.6021 31.9155 16.6046V1.33325C31.9155 0.597125 31.3188 0 30.5823 0Z" fill="#2684FF"/>
<path d="M22.9776 7.65771H7.60889C7.61126 11.4858 10.7139 14.5886 14.5421 14.5911H17.3733V17.3333C17.3781 21.1615 20.4829 24.2621 24.311 24.2621V8.99121C24.311 8.25484 23.714 7.65771 22.9776 7.65771Z" fill="url(#paint0_linear_42_32798)"/>
<path d="M15.3689 15.311H0C0 19.1427 3.10625 22.2488 6.93775 22.2488H9.77775V24.9822C9.78025 28.8068 12.8775 31.9082 16.7022 31.9154V16.6444C16.7022 15.908 16.1052 15.311 15.3689 15.311Z" fill="url(#paint1_linear_42_32798)"/>
</g>
<defs>
<linearGradient id="paint0_linear_42_32798" x1="1644.93" y1="10.331" x2="995.141" y2="688.363" gradientUnits="userSpaceOnUse">
<stop offset="0.18" stop-color="#0052CC"/>
<stop offset="1" stop-color="#2684FF"/>
</linearGradient>
<linearGradient id="paint1_linear_42_32798" x1="1681.33" y1="22.866" x2="929.683" y2="762.391" gradientUnits="userSpaceOnUse">
<stop offset="0.18" stop-color="#0052CC"/>
<stop offset="1" stop-color="#2684FF"/>
</linearGradient>
<clipPath id="clip0_42_32798">
<rect width="32" height="32" fill="white"/>
</clipPath>
</defs>
</svg>
