<svg width="32" height="32" viewBox="0 0 32 32" fill="none" xmlns="http://www.w3.org/2000/svg">
<g clip-path="url(#clip0_111_2785)">
<path d="M6.50682 0.0341989C6.45607 0.0536989 5.02157 0.870949 3.32032 1.8487C1.25882 3.0342 0.200324 3.6582 0.143574 3.7167C0.0985744 3.76745 0.0478244 3.85545 0.0323244 3.9112C-0.0106756 4.0547 -0.0136756 25.0869 0.0293244 25.2382C0.0450744 25.2967 0.0958244 25.3827 0.141824 25.4307C0.253074 25.5477 12.5596 32.624 12.7091 32.6582C12.7783 32.6747 12.8566 32.6717 12.9336 32.6505C13.1016 32.6085 25.3761 25.5479 25.4853 25.4324C25.5303 25.3827 25.5811 25.2967 25.5978 25.2382C25.6193 25.1689 25.6271 24.0692 25.6271 21.7539V18.3699L28.6193 16.6512C31.4406 15.0292 31.6133 14.9277 31.6856 14.8162L31.7598 14.6962V11.0517C31.7598 7.08395 31.7676 7.30745 31.6103 7.1642C31.5683 7.1267 30.1308 6.28795 28.4131 5.2987L25.2931 3.5037H24.9463L21.8938 5.2567C20.2131 6.2237 18.7843 7.0497 18.7148 7.0947C18.6456 7.14045 18.5626 7.22545 18.5283 7.2872L18.4668 7.39345L18.4531 10.8272L18.4406 14.2617L15.9201 15.7137C14.5333 16.5107 13.3791 17.1709 13.3546 17.1767C13.3096 17.1892 13.3068 16.8622 13.3068 10.5507V3.9082L13.2403 3.79395C13.1573 3.6552 13.5303 3.87695 9.78432 1.7237C6.64257 -0.0830512 6.71757 -0.0450511 6.50682 0.0341989ZM9.39457 2.6642C10.7091 3.41795 11.7843 4.04195 11.7843 4.0497C11.7843 4.05745 10.6318 4.7237 9.22382 5.5332L6.66132 7.00395L4.10382 5.5332C2.69832 4.7237 1.54707 4.05745 1.54707 4.0497C1.54707 4.04195 2.69632 3.37595 4.10157 2.5682L6.65332 1.1007L6.82907 1.1962C6.92782 1.24995 8.08307 1.91045 9.39457 2.6642ZM27.6826 6.04745C29.0666 6.84445 30.2111 7.50245 30.2218 7.51345C30.2511 7.5397 25.1758 10.4567 25.1066 10.4537C25.0371 10.4519 20.0246 7.5612 20.0266 7.5262C20.0293 7.4862 25.0723 4.5847 25.1231 4.59245C25.1466 4.59845 26.2988 5.2537 27.6826 6.04745ZM3.70707 6.46845L6.14657 7.8727L6.16032 14.8259L6.17282 21.7799L6.23257 21.8737C6.26382 21.9237 6.32257 21.9909 6.36507 22.0222C6.40532 22.0514 7.76257 22.8247 9.38082 23.7379L12.3203 25.3979V28.3394C12.3203 29.9537 12.3096 31.2779 12.2961 31.2779C12.2853 31.2779 9.74432 29.8239 6.65057 28.0437L1.02632 24.8094L1.01882 14.8662L1.01382 4.9257L1.13882 4.99495C1.21107 5.0332 2.36532 5.69595 3.70707 6.46845ZM12.3203 11.3629V17.7702L12.2218 17.8347C12.0881 17.9197 7.20307 20.7272 7.18682 20.7272C7.17882 20.7272 7.17282 17.8347 7.17282 14.2984L7.17582 7.8727L9.72757 6.4052C11.1308 5.59745 12.2881 4.9422 12.3018 4.94695C12.3118 4.9527 12.3203 7.84045 12.3203 11.3629ZM22.0558 9.88945L24.6133 11.3599V14.2749C24.6133 17.0407 24.6103 17.1892 24.5683 17.1734C24.5411 17.1627 23.3838 16.4997 21.9951 15.6999L19.4668 14.2477V11.3339C19.4668 9.72945 19.4746 8.41895 19.4826 8.41895C19.4933 8.41895 20.6506 9.0797 22.0558 9.88945ZM30.7733 11.3152C30.7733 12.9109 30.7628 14.2272 30.7521 14.2399C30.7336 14.2692 25.6748 17.1842 25.6426 17.1842C25.6351 17.1842 25.6271 15.8737 25.6271 14.2692V11.3554L28.1788 9.8867C29.5838 9.07995 30.7413 8.41895 30.7521 8.41895C30.7658 8.41895 30.7736 9.72145 30.7736 11.3154L30.7733 11.3152ZM21.5576 16.6172C23.7091 17.8554 24.0801 18.0772 24.0431 18.1064C24.0186 18.1219 23.2031 18.5907 22.2326 19.1454C21.2618 19.6992 18.7471 21.1329 16.6426 22.3319L12.8183 24.5137L12.6963 24.4472C11.9658 24.0477 7.72757 21.6367 7.72757 21.6182C7.72557 21.5782 18.9416 15.1327 18.9863 15.1494C19.0078 15.1569 20.1651 15.8177 21.5576 16.6172ZM24.6086 21.8897L24.5996 24.8097L18.9786 28.0439C15.8858 29.8239 13.3438 31.2782 13.3311 31.2782C13.3176 31.2782 13.3068 30.0897 13.3068 28.3397V25.3984L18.9416 22.1854C22.0371 20.4189 24.5811 18.9727 24.5948 18.9697C24.6056 18.9697 24.6103 20.2832 24.6086 21.8897Z" fill="#F05340"/>
</g>
<defs>
<clipPath id="clip0_111_2785">
<rect width="32" height="32" fill="white"/>
</clipPath>
</defs>
</svg>
