<svg width="32" height="32" viewBox="0 0 32 32" fill="none" xmlns="http://www.w3.org/2000/svg">
<g clip-path="url(#clip0_42_32802)">
<path d="M24.5 0H7.5C3.35786 0 0 3.35786 0 7.5V24.5C0 28.6421 3.35786 32 7.5 32H24.5C28.6421 32 32 28.6421 32 24.5V7.5C32 3.35786 28.6421 0 24.5 0Z" fill="#023430"/>
<path d="M21.3966 13.4489C20.0795 7.63875 17.3345 6.092 16.6342 4.99862C16.3454 4.51696 16.0897 4.01627 15.8686 3.5C15.8316 4.01625 15.7636 4.34125 15.3249 4.73275C14.444 5.51813 10.7027 8.56687 10.3879 15.1685C10.0945 21.3237 14.9129 25.1191 15.5494 25.5115C16.0389 25.7524 16.635 25.5166 16.9259 25.2955C19.2485 23.7015 22.422 19.4517 21.3991 13.4489" fill="#10AA50"/>
<path d="M16.0679 22.2339C15.9466 23.7574 15.8598 24.6426 15.5518 25.5133C15.5518 25.5133 15.7539 26.9636 15.8959 28.5H16.3983C16.5181 27.4181 16.7011 26.3441 16.9463 25.2835C16.2959 24.9635 16.0929 23.5708 16.0679 22.2339Z" fill="#B8C4C2"/>
<path d="M16.9455 25.2845C16.2882 24.9809 16.0981 23.5587 16.0689 22.234C16.2313 20.0486 16.2787 17.8562 16.2109 15.6659C16.1764 14.5166 16.2271 5.02111 15.9277 3.63086C16.1326 4.10172 16.3685 4.5584 16.6341 4.99786C17.3344 6.09211 20.0802 7.63886 21.3965 13.449C22.4219 19.4416 19.2656 23.6801 16.9455 25.2845Z" fill="#12924F"/>
</g>
<defs>
<clipPath id="clip0_42_32802">
<rect width="32" height="32" fill="white"/>
</clipPath>
</defs>
</svg>
