<svg width="32" height="32" viewBox="0 0 32 32" fill="none" xmlns="http://www.w3.org/2000/svg">
<g clip-path="url(#clip0_42_32785)">
<path d="M26.972 21.0574C27.107 20.9798 27.2192 20.8681 27.2973 20.7334C27.3756 20.5985 27.417 20.4454 27.4173 20.2894L27.4333 15.1454C27.4337 14.9895 27.475 14.8363 27.5533 14.7014C27.6319 14.5666 27.7445 14.4549 27.88 14.3774L30.6667 12.7734C30.8018 12.6961 30.955 12.6557 31.1107 12.6561C31.2666 12.6565 31.4198 12.6979 31.5547 12.7761C31.6896 12.8538 31.8018 12.9655 31.88 13.1001C31.9578 13.2351 31.9988 13.3883 31.9987 13.5441V22.8961C31.9986 23.0525 31.9572 23.2061 31.8788 23.3414C31.8004 23.4767 31.6876 23.5889 31.552 23.6668L21.028 29.7121C20.8936 29.7891 20.7415 29.8295 20.5867 29.8295C20.4318 29.8295 20.2797 29.7891 20.1453 29.7121L11.8867 24.9894C11.7506 24.9118 11.6374 24.7995 11.5587 24.6641C11.48 24.5284 11.4386 24.3743 11.4387 24.2174V19.5014C11.4387 19.4961 11.444 19.4934 11.4493 19.4961C11.4547 19.4988 11.46 19.4961 11.46 19.4894V19.4841C11.46 19.4801 11.4627 19.4774 11.4653 19.4748L18.268 15.5681C18.2733 15.5641 18.2707 15.5548 18.264 15.5548C18.263 15.5548 18.2619 15.5545 18.261 15.5541C18.2601 15.5536 18.2593 15.5529 18.2587 15.5521C18.2581 15.5514 18.2577 15.5505 18.2574 15.5496C18.2572 15.5487 18.2572 15.5477 18.2573 15.5468L18.2707 10.9241C18.2713 10.7675 18.2306 10.6136 18.1526 10.4778C18.0746 10.342 17.9622 10.2292 17.8267 10.1508C17.6915 10.0727 17.5381 10.0316 17.382 10.0316C17.2259 10.0316 17.0725 10.0727 16.9373 10.1508L11.8827 13.0654C11.7478 13.143 11.5949 13.1838 11.4393 13.1838C11.2837 13.1838 11.1309 13.143 10.996 13.0654L5.924 10.1454C5.78892 10.0679 5.63585 10.0272 5.4801 10.0274C5.32436 10.0277 5.1714 10.0688 5.03654 10.1467C4.90167 10.2246 4.78962 10.3365 4.71161 10.4713C4.6336 10.6061 4.59235 10.759 4.592 10.9148V19.2708C4.59206 19.4265 4.55119 19.5796 4.47351 19.7146C4.39582 19.8496 4.28403 19.9619 4.14934 20.0401C4.01483 20.1182 3.86219 20.1596 3.70667 20.1601C3.55095 20.1605 3.39784 20.1201 3.26267 20.0428L0.448002 18.4334C0.311919 18.3558 0.198768 18.2435 0.120002 18.1081C0.0410815 17.972 -0.000326671 17.8174 1.94074e-06 17.6601L0.0253353 3.0561C0.0258188 2.90055 0.0670924 2.74785 0.145036 2.61324C0.22298 2.47863 0.334868 2.36681 0.469532 2.28895C0.604196 2.2111 0.756926 2.16992 0.912476 2.16954C1.06803 2.16916 1.22096 2.20958 1.356 2.28677L10.996 7.82411C11.1309 7.90167 11.2837 7.94248 11.4393 7.94248C11.5949 7.94248 11.7478 7.90167 11.8827 7.82411L21.52 2.28677C21.6552 2.2094 21.8083 2.16894 21.964 2.16944C22.12 2.16975 22.2731 2.21114 22.408 2.28944C22.5431 2.36747 22.6553 2.47967 22.7333 2.61477C22.8106 2.74995 22.8511 2.90305 22.8507 3.05877V17.6668C22.8507 17.8228 22.8107 17.9761 22.732 18.1121C22.6536 18.2474 22.5409 18.3596 22.4053 18.4374L17.3587 21.3441C17.2229 21.4223 17.1102 21.535 17.032 21.6708C16.9539 21.8062 16.913 21.9598 16.9133 22.1161C16.9135 22.2725 16.9549 22.4261 17.0333 22.5614C17.1124 22.6971 17.2261 22.8094 17.3627 22.8868L20.1467 24.4721C20.2809 24.5481 20.4324 24.5881 20.5867 24.5881C20.7421 24.5879 20.8947 24.547 21.0293 24.4694L26.972 21.0561V21.0574ZM27.556 7.95344C27.5558 8.11031 27.5973 8.26443 27.676 8.40011C27.7555 8.53593 27.8696 8.64821 28.0067 8.72544C28.1433 8.80263 28.2979 8.84229 28.4548 8.84042C28.6117 8.83855 28.7653 8.7952 28.9 8.71477L31.568 7.11477C31.6996 7.03588 31.8084 6.92425 31.884 6.79077C31.9599 6.65704 31.9999 6.5059 32 6.35211V3.09344C31.9997 2.93645 31.9578 2.78234 31.8787 2.64677C31.7993 2.51119 31.6854 2.39905 31.5487 2.32177C31.4119 2.24448 31.2571 2.2048 31.1 2.20677C30.9431 2.20853 30.7895 2.25177 30.6547 2.3321L27.988 3.9321C27.856 4.01082 27.7466 4.12246 27.6707 4.2561C27.5952 4.38999 27.5557 4.54111 27.556 4.69477V7.95344Z" fill="#007FFF"/>
</g>
<defs>
<clipPath id="clip0_42_32785">
<rect width="32" height="32" fill="white"/>
</clipPath>
</defs>
</svg>
