<svg width="32" height="32" viewBox="0 0 32 32" fill="none" xmlns="http://www.w3.org/2000/svg">
<path d="M10.9157 17.7243C9.88469 18.0168 9.20844 18.5298 8.76294 19.0423C9.18969 18.6688 9.76119 18.326 10.5322 18.1075C11.3209 17.884 11.9937 17.8855 12.5494 17.9928V17.558C12.0752 17.5148 11.5314 17.5493 10.9154 17.724L10.9157 17.7243ZM8.71594 14.0698L4.88744 15.0785C4.88744 15.0785 4.95719 15.177 5.08644 15.3085L8.33244 14.4533C8.33244 14.4533 8.28645 15.046 7.88695 15.5763C8.64245 15.0045 8.71594 14.0698 8.71594 14.0698ZM11.9207 23.0675C6.53294 24.5188 3.68245 18.2748 2.81945 15.034C2.4207 13.538 2.2467 12.405 2.2002 11.674C2.1958 11.6079 2.19672 11.5415 2.20294 11.4755C1.92344 11.4925 1.7897 11.6378 1.81695 12.0575C1.86345 12.7883 2.03745 13.921 2.4362 15.4175C3.2987 18.6578 6.14969 24.9018 11.5374 23.4505C12.7102 23.1345 13.5912 22.5593 14.2524 21.8245C13.6429 22.375 12.8799 22.8088 11.9207 23.0675ZM12.9332 10.2485V10.632H15.0464C15.0032 10.4963 14.9594 10.374 14.9159 10.2485H12.9332Z" fill="#2D4552"/>
<path d="M15.5183 13.4067C16.4688 13.6767 16.9713 14.3429 17.237 14.9327L18.2968 15.2337C18.2968 15.2337 18.1523 13.1699 16.2855 12.6397C14.5393 12.1434 13.4645 13.6099 13.3338 13.7997C13.8418 13.4377 14.5835 13.1414 15.5183 13.4067ZM23.9535 14.9422C22.2055 14.4437 21.1313 15.9132 21.0025 16.1004C21.511 15.7389 22.2523 15.4424 23.1868 15.7089C24.1358 15.9792 24.6378 16.6447 24.9043 17.2349L25.9655 17.5369C25.9655 17.5369 25.8185 15.4727 23.9535 14.9422ZM22.9008 20.3837L14.0855 17.9192C14.0855 17.9192 14.181 18.4029 14.547 19.0294L21.969 21.1044C22.58 20.7509 22.9008 20.3837 22.9008 20.3837ZM16.7893 25.6882C9.8093 23.8169 10.6533 14.9234 11.7825 10.7092C12.2475 8.97243 12.7255 7.68168 13.122 6.81618C12.8855 6.76743 12.6895 6.89218 12.496 7.28568C12.075 8.13943 11.5368 9.52968 11.0158 11.4757C9.8868 15.6899 9.0428 24.5829 16.0225 26.4542C19.3123 27.3354 21.8753 25.9959 23.7858 23.8924C21.9723 25.5349 19.657 26.4559 16.7893 25.6882Z" fill="#2D4552"/>
<path d="M12.9332 20.984V19.1892L7.94697 20.6032C7.94697 20.6032 8.31547 18.4625 10.916 17.7247C11.7047 17.5012 12.3775 17.5027 12.9332 17.61V10.249H15.43C15.1582 9.40898 14.8952 8.76223 14.6742 8.31298C14.309 7.56923 13.9342 8.06223 13.084 8.77348C12.485 9.27373 10.9715 10.3412 8.69372 10.955C6.41597 11.5692 4.57472 11.4062 3.80622 11.2732C2.71697 11.0852 2.14722 10.8462 2.20072 11.6745C2.24722 12.4052 2.42122 13.5382 2.81997 15.0345C3.68247 18.275 6.53347 24.5187 11.9212 23.0675C13.3285 22.6882 14.322 21.9387 15.0105 20.9835H12.9332V20.984ZM4.88697 15.079L8.71597 14.0702C8.71597 14.0702 8.60447 15.5432 7.16897 15.9215C5.73322 16.2995 4.88697 15.079 4.88697 15.079Z" fill="#E2574C"/>
<path d="M27.3431 10.3338C26.3479 10.5083 23.9601 10.7255 21.0091 9.93479C18.0574 9.14429 16.0991 7.76179 15.3231 7.11179C14.2231 6.19054 13.7394 5.55029 13.2631 6.51879C12.8421 7.37304 12.3039 8.76304 11.7829 10.7093C10.6539 14.9235 9.80989 23.8165 16.7896 25.6878C23.7676 27.5575 27.4826 19.4335 28.6119 15.219C29.1329 13.2733 29.3614 11.8 29.4244 10.85C29.4961 9.77379 28.7569 10.0863 27.3434 10.334L27.3431 10.3338ZM13.3201 13.8203C13.3201 13.8203 14.4201 12.1095 16.2856 12.6398C18.1524 13.17 18.2969 15.2338 18.2969 15.2338L13.3201 13.8203ZM17.8739 21.4968C14.5926 20.5355 14.0864 17.919 14.0864 17.919L22.9011 20.3835C22.9011 20.383 21.1219 22.446 17.8739 21.4968ZM20.9904 16.1193C20.9904 16.1193 22.0889 14.4098 23.9539 14.9415C25.8189 15.4725 25.9659 17.5363 25.9659 17.5363L20.9904 16.1193Z" fill="#2EAD33"/>
<path d="M11.1905 19.6833L7.94673 20.6025C7.94673 20.6025 8.29923 18.5952 10.6887 17.7995L8.85198 10.9062L8.69323 10.9545C6.41548 11.5688 4.57423 11.4057 3.80573 11.2727C2.71648 11.085 2.14673 10.8457 2.20023 11.6742C2.24673 12.405 2.42073 13.5378 2.81948 15.0343C3.68198 18.2745 6.53298 24.5185 11.9207 23.0672L12.0795 23.0175L11.1905 19.6833ZM4.88698 15.0787L8.71598 14.07C8.71598 14.07 8.60448 15.543 7.16898 15.9213C5.73323 16.2993 4.88698 15.0787 4.88698 15.0787Z" fill="#D65348"/>
<path d="M18.0214 21.533L17.8729 21.497C14.5916 20.536 14.0854 17.9193 14.0854 17.9193L18.6309 19.1898L21.0374 9.94254L21.0084 9.93479C18.0566 9.14429 16.0984 7.76179 15.3224 7.11179C14.2224 6.19054 13.7386 5.55029 13.2624 6.51879C12.8419 7.37304 12.3034 8.76304 11.7824 10.7093C10.6534 14.9235 9.8094 23.8165 16.7891 25.6878L16.9321 25.72L18.0214 21.533ZM13.3196 13.8205C13.3196 13.8205 14.4197 12.1098 16.2852 12.64C18.1519 13.1703 18.2964 15.234 18.2964 15.234L13.3196 13.8205Z" fill="#1D8D22"/>
<path d="M11.3559 19.636L10.4859 19.883C10.6914 21.0415 11.0537 22.1535 11.6222 23.1358C11.7212 23.114 11.8192 23.095 11.9202 23.0675C12.1736 22.9979 12.4224 22.9125 12.6652 22.8118C12.0299 21.869 11.6097 20.783 11.3559 19.636ZM11.0162 11.476C10.5692 13.1445 10.1692 15.546 10.2792 17.9548C10.4859 17.8636 10.6985 17.7865 10.9157 17.724L11.0767 17.688C10.8804 15.115 11.3047 12.493 11.7829 10.7093C11.8962 10.2862 12.0175 9.86529 12.1467 9.44678C11.9361 9.58137 11.7212 9.70894 11.5022 9.82928C11.3259 10.3739 11.1639 10.923 11.0162 11.476Z" fill="#C04B41"/>
</svg>
