<svg width="32" height="32" viewBox="0 0 32 32" fill="none" xmlns="http://www.w3.org/2000/svg">
<path d="M23.4522 23.0279C23.6484 21.3946 23.5897 21.1549 24.8062 21.4196L25.1149 21.4466C26.0504 21.4891 27.2742 21.2961 27.9932 20.9621C29.5409 20.2439 30.4584 19.0451 28.9327 19.3599C25.4517 20.0781 25.2124 18.8994 25.2124 18.8994C28.8882 13.4456 30.4247 6.52237 29.0982 4.82762C25.4807 0.205372 19.2189 2.39112 19.1142 2.44762L19.0807 2.45387C18.3929 2.31112 17.6232 2.22587 16.7584 2.21187C15.1832 2.18587 13.9879 2.62487 13.0812 3.31237C13.0812 3.31237 1.91044 -1.28988 2.43019 9.10012C2.54069 11.3104 5.59819 25.8246 9.24519 21.4406C10.5782 19.8376 11.8662 18.4821 11.8662 18.4821C12.5057 18.9069 13.2717 19.1239 14.0747 19.0459L14.1369 18.9929C14.1174 19.1919 14.1259 19.3866 14.1617 19.6171C13.2224 20.6669 13.4984 20.8511 11.6202 21.2376C9.71969 21.6291 10.8362 22.3264 11.5649 22.5086C12.4487 22.7296 14.4929 23.0426 15.8744 21.1091L15.8194 21.3296C16.1879 21.6246 16.1632 23.4489 16.2152 24.7521C16.2674 26.0556 16.3547 27.2719 16.6204 27.9891C16.8862 28.7061 17.1997 30.5531 19.6682 30.0241C21.7312 29.5831 23.3084 28.9469 23.4522 23.0279Z" fill="black"/>
<path d="M18.8644 31.314C17.7726 31.314 17.0616 30.8917 16.6299 30.484C15.9781 29.869 15.7196 29.0767 15.5651 28.6035L15.4984 28.406C15.1874 27.5665 15.0819 26.3577 15.0194 24.8012C15.0099 24.5675 15.0034 24.3267 14.9961 24.0715C14.9909 23.8847 14.9844 23.6505 14.9749 23.4055C14.5816 23.593 14.1641 23.7249 13.7344 23.7975C12.9646 23.929 12.1371 23.8865 11.2744 23.6707C10.6656 23.5185 10.0331 23.203 9.67263 22.7157C8.62188 23.636 7.61963 23.5112 7.07363 23.329C6.11038 23.0077 5.24838 22.105 4.43813 20.5697C3.86088 19.476 3.30263 18.051 2.77863 16.334C1.86613 13.344 1.28638 10.1947 1.23488 9.1607C1.07288 5.92445 1.94413 3.60995 3.82388 2.2822C6.78913 0.187703 11.2819 1.41945 12.9199 1.9787C14.0204 1.31545 15.3151 0.992703 16.7781 1.01595C17.5639 1.0287 18.3121 1.0977 19.0071 1.2217C19.7321 0.993703 21.1641 0.666453 22.8034 0.686953C25.8236 0.722953 28.3264 1.89995 30.0406 4.0907C31.2641 5.6537 30.6591 8.93595 30.1899 10.7535C29.5294 13.31 28.3721 16.029 26.9506 18.396C27.3366 18.3987 27.8959 18.3525 28.6909 18.1882C30.2594 17.8645 30.7181 18.7055 30.8426 19.082C31.3414 20.5925 29.1734 21.734 28.4971 22.048C27.6306 22.4502 26.2179 22.6952 25.0609 22.6422L25.0104 22.639L24.7064 22.6122L24.6764 22.8657L24.6474 23.1135C24.5696 26.1132 24.1411 28.013 23.2594 29.2682C22.3351 30.5842 21.0506 30.953 19.9191 31.1955C19.5331 31.278 19.1824 31.314 18.8644 31.314ZM16.5669 20.3962C17.2716 20.9602 17.3334 22.0215 17.3886 24.0047C17.3956 24.2522 17.4021 24.4865 17.4109 24.7052C17.4374 25.3677 17.4996 26.919 17.7426 27.5745C17.7769 27.6672 17.8076 27.7612 17.8401 27.861C18.1109 28.69 18.2466 29.1057 19.4174 28.8555C20.4001 28.6447 20.9054 28.4557 21.3009 27.8927C21.8756 27.0742 22.1971 25.4277 22.2561 22.999L23.4519 23.028L22.2644 22.8855L22.2994 22.589C22.4131 21.6115 22.4951 20.9055 23.1484 20.4385C23.6726 20.064 24.2699 20.1002 24.7456 20.186C24.2229 19.791 24.0784 19.3277 24.0399 19.1377L23.9401 18.6465L24.2204 18.2307C25.8346 15.8357 27.1656 12.8922 27.8726 10.1547C28.5991 7.34195 28.3776 5.8482 28.1561 5.5657C25.2239 1.81895 20.1391 3.36595 19.6081 3.54145L19.5184 3.58995L19.0684 3.6737L18.8379 3.62595C18.2024 3.49395 17.4964 3.42095 16.7396 3.4087C15.5506 3.3887 14.5914 3.6697 13.8049 4.26645L13.2591 4.6802L12.6259 4.41945C11.2729 3.8662 7.29888 2.75395 5.20188 4.2392C4.03788 5.0637 3.50763 6.6792 3.62563 9.04095C3.66463 9.8207 4.19438 12.7725 5.06838 15.6352C6.27613 19.5915 7.37363 20.9057 7.83188 21.0585C7.91188 21.0855 8.11938 20.9242 8.32588 20.6762C9.18689 19.644 10.0784 18.6378 10.9994 17.6587L11.6919 16.93L12.5291 17.4862C12.8666 17.7105 13.2389 17.8377 13.6211 17.8617L15.6179 16.1587L15.3286 19.1107C15.3221 19.177 15.3189 19.2672 15.3449 19.4347L15.4319 19.9942L15.0544 20.4162L15.0109 20.4652L16.1079 20.9715L16.5669 20.3962Z" fill="black"/>
<path d="M28.9329 19.3601C25.4517 20.0784 25.2124 18.8996 25.2124 18.8996C28.8882 13.4456 30.4247 6.52211 29.0987 4.82786C25.4812 0.205856 19.2189 2.39161 19.1144 2.44836L19.0807 2.45436C18.3929 2.31161 17.6232 2.22661 16.7579 2.21261C15.1827 2.18686 13.9879 2.62561 13.0812 3.31311C13.0812 3.31311 1.91018 -1.28889 2.42968 9.10086C2.54018 11.3114 5.59768 25.8256 9.24468 21.4416C10.5777 19.8386 11.8654 18.4831 11.8654 18.4831C12.5052 18.9079 13.2709 19.1249 14.0737 19.0469L14.1362 18.9939C14.1167 19.1929 14.1257 19.3876 14.1612 19.6181C13.2217 20.6679 13.4977 20.8521 11.6194 21.2386C9.71893 21.6301 10.8354 22.3274 11.5644 22.5096C12.4479 22.7306 14.4924 23.0436 15.8737 21.1101L15.8184 21.3306C16.1867 21.6256 16.4452 23.2486 16.4019 24.7199C16.3584 26.1911 16.3294 27.2014 16.6197 27.9904C16.9097 28.7794 17.1987 30.5544 19.6677 30.0254C21.7307 29.5834 22.7997 28.4376 22.9487 26.5266C23.0542 25.1679 23.2929 25.3689 23.3082 24.1541L23.4999 23.5791C23.7209 21.7374 23.5349 21.1434 24.8062 21.4196L25.1149 21.4466C26.0504 21.4891 27.2747 21.2961 27.9934 20.9621C29.5409 20.2444 30.4587 19.0454 28.9329 19.3601Z" fill="#336791"/>
<path d="M18.9895 30.5769C16.9315 30.5769 16.2795 28.9471 16.0127 28.2806C15.6222 27.3039 15.538 23.5134 15.625 20.4049C15.6263 20.3525 15.6379 20.3008 15.6593 20.2529C15.6806 20.205 15.7112 20.1618 15.7493 20.1258C15.7874 20.0898 15.8323 20.0617 15.8813 20.0431C15.9304 20.0245 15.9826 20.0157 16.035 20.0174C16.0873 20.0188 16.1389 20.0306 16.1867 20.0519C16.2346 20.0733 16.2777 20.1039 16.3137 20.1419C16.3497 20.18 16.3778 20.2248 16.3965 20.2737C16.4151 20.3227 16.424 20.3748 16.4225 20.4271C16.3222 24.0124 16.4645 27.2614 16.7535 27.9844C17.2045 29.1116 17.8885 30.0976 19.8222 29.6834C21.658 29.2896 22.3455 28.5936 22.6517 26.8184C22.8867 25.4561 23.3515 21.5806 23.4087 20.8159C23.4126 20.7636 23.4267 20.7126 23.4502 20.6658C23.4738 20.619 23.5064 20.5774 23.5461 20.5432C23.5858 20.509 23.6319 20.483 23.6817 20.4666C23.7315 20.4503 23.784 20.4439 23.8362 20.4479C23.9417 20.4559 24.0397 20.5054 24.1087 20.5855C24.1776 20.6657 24.212 20.7699 24.2042 20.8754C24.1445 21.6716 23.682 25.5396 23.438 26.9541C23.0765 29.0509 22.1417 30.0019 19.9895 30.4634C19.6237 30.5416 19.2915 30.5766 18.9895 30.5769ZM7.83048 22.6166C7.6506 22.616 7.47199 22.5865 7.30148 22.5291C5.96473 22.0831 4.69148 19.9061 3.51698 16.0579C2.62298 13.1286 2.05648 10.0711 2.00673 9.0774C1.85948 6.1314 2.61798 4.04715 4.26173 2.8829C7.51348 0.578896 12.9837 2.7729 13.215 2.8674C13.3129 2.90741 13.391 2.9847 13.432 3.08227C13.473 3.17983 13.4735 3.28968 13.4335 3.38765C13.3935 3.48561 13.3162 3.56367 13.2186 3.60464C13.121 3.64562 13.0112 3.64616 12.9132 3.60615C12.8605 3.58465 7.61498 1.48315 4.72123 3.5349C3.31573 4.5314 2.67048 6.3829 2.80323 9.03765C2.84498 9.8749 3.37423 12.8589 4.27973 15.8249C5.32823 19.2604 6.52148 21.4281 7.55373 21.7724C7.71573 21.8264 8.20873 21.9906 8.91348 21.1431C9.73535 20.1561 10.588 19.1951 11.4702 18.2616C11.5441 18.188 11.6438 18.1462 11.748 18.1452C11.8523 18.1441 11.9528 18.1839 12.0281 18.2561C12.1034 18.3282 12.1474 18.427 12.1508 18.5312C12.1542 18.6354 12.1167 18.7368 12.0462 18.8136C12.0342 18.8261 10.8345 20.0804 9.52698 21.6534C8.90773 22.3981 8.31423 22.6166 7.83048 22.6166ZM25.1877 19.2554C25.1154 19.2553 25.0445 19.2355 24.9825 19.1983C24.9206 19.161 24.8699 19.1075 24.836 19.0437C24.802 18.9798 24.7861 18.9079 24.7898 18.8357C24.7936 18.7635 24.8169 18.6936 24.8572 18.6336C28.573 13.1199 29.8772 6.45765 28.7602 5.03015C27.3542 3.23365 25.369 2.2954 22.8592 2.24115C21.001 2.20115 19.524 2.67565 19.2825 2.7584L19.2217 2.78315C18.979 2.8594 18.7927 2.7264 18.7225 2.5709C18.6824 2.4818 18.6764 2.38113 18.7054 2.28788C18.7345 2.19462 18.7967 2.11521 18.8802 2.06465C18.8917 2.0579 18.9282 2.0424 18.9875 2.02065C19.3977 1.8704 20.8972 1.4204 22.7545 1.44165C25.5315 1.47115 27.8255 2.5419 29.388 4.53865C30.1272 5.4834 30.129 7.6599 29.3927 10.5104C28.6422 13.4166 27.23 16.5399 25.5185 19.0796C25.442 19.1939 25.316 19.2554 25.1877 19.2554ZM25.3777 21.8079C24.7432 21.8079 24.1745 21.7184 23.834 21.5144C23.484 21.3046 23.4172 21.0196 23.4085 20.8684C23.313 19.1909 24.2385 18.8989 24.7105 18.7656C24.6447 18.6661 24.5512 18.5491 24.4545 18.4284C24.1792 18.0844 23.8022 17.6134 23.5117 16.9089C23.4662 16.7989 23.3237 16.5431 23.1587 16.2469C22.264 14.6424 20.4022 11.3036 21.5982 9.5939C22.1517 8.80265 23.254 8.49115 24.878 8.6649C24.4002 7.2094 22.1252 2.6564 16.727 2.5679C15.1035 2.5409 13.772 3.04015 12.7715 4.0504C10.5315 6.31265 10.6125 10.4059 10.6137 10.4469C10.6151 10.4993 10.6062 10.5514 10.5874 10.6003C10.5686 10.6492 10.5404 10.6939 10.5044 10.7319C10.4683 10.7699 10.4251 10.8005 10.3773 10.8218C10.3294 10.8431 10.2778 10.8548 10.2255 10.8561C10.1731 10.8575 10.121 10.8486 10.0721 10.8298C10.0232 10.811 9.97845 10.7828 9.94045 10.7468C9.90245 10.7107 9.87192 10.6675 9.85061 10.6197C9.82929 10.5718 9.81761 10.5203 9.81623 10.4679C9.81123 10.2861 9.72773 5.99065 12.2047 3.4889C13.364 2.31815 14.89 1.74015 16.7402 1.7704C20.1937 1.82715 22.4167 3.5829 23.6732 5.04565C25.043 6.6399 25.7145 8.3984 25.7697 8.9854C25.811 9.4219 25.4977 9.50915 25.4345 9.52215L25.2905 9.5254C23.6967 9.27015 22.6742 9.4474 22.2515 10.0514C21.3417 11.3516 23.103 14.5099 23.855 15.8586C24.047 16.2026 24.1855 16.4514 24.249 16.6049C24.496 17.2039 24.8182 17.6064 25.077 17.9299C25.3047 18.2144 25.502 18.4611 25.5725 18.7506C25.6052 18.8081 26.07 19.4956 28.8277 18.9264C29.519 18.7839 29.9335 18.9056 30.0602 19.2889C30.3095 20.0426 28.911 20.9219 28.1367 21.2814C27.443 21.6039 26.3357 21.8079 25.3777 21.8079ZM24.2037 20.8026C24.2912 20.8909 24.729 21.0431 25.6355 21.0041C26.4415 20.9696 27.2915 20.7944 27.8015 20.5576C28.4537 20.2546 28.8892 19.9159 29.1147 19.6846L28.9897 19.7076C27.2265 20.0716 25.9792 20.0231 25.2827 19.5634C25.2359 19.5325 25.1909 19.499 25.1477 19.4631C25.0722 19.4929 25.0025 19.5124 24.9527 19.5264C24.5577 19.6371 24.1492 19.7519 24.2037 20.8026ZM12.8132 23.0314C12.3752 23.0314 11.9142 22.9716 11.4435 22.8539C10.9557 22.7319 10.1335 22.3646 10.146 21.7614C10.1602 21.0846 11.1445 20.8816 11.515 20.8054C12.8535 20.5296 12.9407 20.4191 13.359 19.8879C13.481 19.7331 13.6327 19.5404 13.8397 19.3094C14.147 18.9654 14.4827 18.7911 14.8377 18.7911C15.085 18.7911 15.2877 18.8749 15.4217 18.9306C15.8487 19.1076 16.205 19.5356 16.3515 20.0474C16.4837 20.5091 16.4205 20.9536 16.174 21.2989C15.3647 22.4321 14.2025 23.0314 12.8132 23.0314ZM11.0077 21.7956C11.128 21.8886 11.369 22.0129 11.6372 22.0799C12.045 22.1819 12.4405 22.2336 12.8135 22.2336C13.95 22.2336 14.8625 21.7631 15.5252 20.8351C15.6635 20.6416 15.622 20.3959 15.585 20.2666C15.5075 19.9959 15.315 19.7496 15.1167 19.6674C15.0092 19.6229 14.92 19.5889 14.838 19.5889C14.794 19.5889 14.66 19.5889 14.4345 19.8411C14.2789 20.0162 14.1293 20.1964 13.986 20.3816C13.465 21.0431 13.2262 21.2676 11.6762 21.5869C11.298 21.6644 11.104 21.7434 11.0077 21.7956ZM14.075 19.9556C13.9798 19.9555 13.8877 19.9213 13.8155 19.8592C13.7433 19.7971 13.6957 19.7113 13.6812 19.6171C13.6713 19.5509 13.6646 19.4843 13.6612 19.4174C12.6452 19.3984 11.665 18.9624 10.9207 18.1859C9.97973 17.2041 9.55149 15.8439 9.74599 14.4541C9.95723 12.9449 9.87823 11.6126 9.83573 10.8969C9.82398 10.6979 9.81548 10.5541 9.81598 10.4546C9.81673 10.3284 9.81923 9.99365 10.9382 9.4264C11.3362 9.22465 12.1342 8.87265 13.006 8.7824C14.4502 8.63315 15.4022 9.2764 15.6872 10.5939C16.4565 14.1509 15.7482 15.7241 15.231 16.8731C15.1347 17.0871 15.0437 17.2891 14.971 17.4849L14.9067 17.6574C14.6335 18.3901 14.3972 19.0231 14.4697 19.4959C14.4777 19.5477 14.4754 19.6005 14.4629 19.6514C14.4504 19.7023 14.4281 19.7502 14.3971 19.7924C14.3661 19.8347 14.3271 19.8704 14.2823 19.8975C14.2375 19.9247 14.1878 19.9427 14.136 19.9506L14.075 19.9556ZM10.6162 10.5651L10.6317 10.8499C10.6757 11.5934 10.7577 12.9769 10.5357 14.5649C10.3755 15.7111 10.7255 16.8299 11.4965 17.6339C12.1057 18.2694 12.9075 18.6201 13.7315 18.6201H13.7485C13.8407 18.2314 13.994 17.8209 14.159 17.3786L14.2227 17.2071C14.305 16.9861 14.4012 16.7721 14.5032 16.5456C15.001 15.4396 15.6207 14.0629 14.907 10.7626C14.7657 10.1089 14.423 9.73065 13.8597 9.6059C12.7027 9.3504 10.9785 10.2206 10.6162 10.5651ZM13.0237 10.3959C13.0037 10.5369 13.282 10.9134 13.645 10.9636C14.0072 11.0144 14.3172 10.7199 14.337 10.5789C14.3567 10.4379 14.0787 10.2824 13.7157 10.2319C13.353 10.1814 13.043 10.2549 13.0237 10.3959ZM13.7282 11.1024L13.6265 11.0954C13.4015 11.0641 13.174 10.9224 13.0182 10.7159C12.9635 10.6434 12.8742 10.5029 12.892 10.3774C12.9172 10.1934 13.1417 10.0831 13.492 10.0831C13.5702 10.0831 13.6517 10.0889 13.7337 10.1004C13.9252 10.1269 14.103 10.1821 14.2342 10.2554C14.4617 10.3824 14.4785 10.5241 14.4682 10.5974C14.4402 10.8006 14.117 11.1024 13.7282 11.1024ZM13.156 10.4194C13.1672 10.5064 13.3827 10.7934 13.6632 10.8321L13.7285 10.8366C13.9875 10.8366 14.181 10.6329 14.2037 10.5661C14.1797 10.5206 14.0132 10.4076 13.6975 10.3636C13.6295 10.3539 13.5609 10.349 13.4922 10.3489C13.2892 10.3489 13.1815 10.3946 13.156 10.4194ZM24.0572 10.1081C24.077 10.2491 23.799 10.6256 23.4362 10.6761C23.0737 10.7266 22.7635 10.4324 22.7435 10.2914C22.7245 10.1504 23.0025 9.99465 23.365 9.9444C23.7275 9.89365 24.0372 9.9674 24.0572 10.1081ZM23.3525 10.7481C23.0035 10.7481 22.7022 10.4766 22.6775 10.3004C22.6487 10.0889 22.997 9.92815 23.3555 9.8784C23.4345 9.8674 23.5127 9.8619 23.588 9.8619C23.8975 9.8619 24.1025 9.95265 24.123 10.0991C24.1362 10.1939 24.0635 10.3401 23.9382 10.4721C23.8555 10.5589 23.6817 10.7091 23.445 10.7419L23.3525 10.7481ZM23.5882 9.9949C23.5192 9.9949 23.4472 10.0001 23.3742 10.0101C23.014 10.0604 22.799 10.2049 22.8095 10.2824C22.8215 10.3676 23.0515 10.6154 23.3527 10.6154L23.427 10.6101C23.6237 10.5829 23.7715 10.4544 23.842 10.3804C23.9527 10.2641 23.9967 10.1546 23.9915 10.1174C23.9845 10.0679 23.8515 9.9949 23.5882 9.9949ZM24.5795 18.2056C24.5072 18.2057 24.4363 18.1861 24.3743 18.1489C24.3123 18.1117 24.2616 18.0584 24.2276 17.9946C24.1936 17.9309 24.1776 17.8591 24.1813 17.7869C24.1849 17.7147 24.2082 17.6449 24.2485 17.5849C25.098 16.3161 24.9425 15.0224 24.7922 13.7711C24.728 13.2381 24.662 12.6869 24.679 12.1579C24.6965 11.6136 24.7657 11.1646 24.8325 10.7304C24.9117 10.2159 24.9867 9.7299 24.9557 9.1529C24.9529 9.1006 24.9604 9.04825 24.9778 8.99886C24.9952 8.94946 25.0222 8.90397 25.0572 8.86499C25.0922 8.82602 25.1345 8.79431 25.1817 8.77169C25.229 8.74907 25.2802 8.73597 25.3325 8.73315C25.3848 8.73032 25.4371 8.73783 25.4865 8.75523C25.5359 8.77264 25.5814 8.7996 25.6204 8.83459C25.6594 8.86957 25.6911 8.91189 25.7137 8.95913C25.7363 9.00637 25.7494 9.0576 25.7522 9.1099C25.7877 9.7694 25.703 10.3194 25.621 10.8516C25.5577 11.2624 25.4922 11.6871 25.4765 12.1834C25.4612 12.6519 25.521 13.1494 25.5842 13.6759C25.7442 15.0064 25.9255 16.5144 24.9115 18.0286C24.875 18.0832 24.8256 18.1279 24.7677 18.1587C24.7097 18.1896 24.6451 18.2057 24.5795 18.2056Z" fill="white"/>
</svg>
