<svg width="32" height="32" viewBox="0 0 32 32" fill="none" xmlns="http://www.w3.org/2000/svg">
<g clip-path="url(#clip0_42_32788)">
<path d="M25.2796 6.09521H23.4819C23.1368 6.09521 22.8569 6.37504 22.8569 6.72021V6.99396C22.8569 7.33914 23.1368 7.61896 23.4819 7.61896H25.2796C25.6247 7.61896 25.9046 7.33914 25.9046 6.99396V6.72021C25.9046 6.37504 25.6247 6.09521 25.2796 6.09521Z" fill="#56B3B4"/>
<path d="M8.51787 30.4761H0.625C0.279822 30.4761 0 30.7559 0 31.1011V31.3748C0 31.72 0.279822 31.9998 0.625 31.9998H8.51787C8.86305 31.9998 9.14287 31.72 9.14287 31.3748V31.1011C9.14287 30.7559 8.86305 30.4761 8.51787 30.4761Z" fill="#EA5E5E"/>
<path d="M23.7559 18.2856H18.9106C18.5655 18.2856 18.2856 18.5655 18.2856 18.9106V19.1844C18.2856 19.5296 18.5655 19.8094 18.9106 19.8094H23.7559C24.1011 19.8094 24.3809 19.5296 24.3809 19.1844V18.9106C24.3809 18.5655 24.1011 18.2856 23.7559 18.2856Z" fill="#BF85BF"/>
<path d="M16.1371 18.2856H9.76807C9.42289 18.2856 9.14307 18.5655 9.14307 18.9106V19.1844C9.14307 19.5296 9.42289 19.8094 9.76807 19.8094H16.1371C16.4822 19.8094 16.7621 19.5296 16.7621 19.1844V18.9106C16.7621 18.5655 16.4822 18.2856 16.1371 18.2856Z" fill="#EA5E5E"/>
<path d="M6.994 18.2856H0.625C0.279822 18.2856 0 18.5655 0 18.9106V19.1844C0 19.5296 0.279822 19.8094 0.625 19.8094H6.994C7.33918 19.8094 7.619 19.5296 7.619 19.1844V18.9106C7.619 18.5655 7.33918 18.2856 6.994 18.2856Z" fill="#56B3B4"/>
<path d="M8.51787 24.3809H0.625C0.279822 24.3809 0 24.6607 0 25.0059V25.2796C0 25.6248 0.279822 25.9046 0.625 25.9046H8.51787C8.86305 25.9046 9.14287 25.6248 9.14287 25.2796V25.0059C9.14287 24.6607 8.86305 24.3809 8.51787 24.3809Z" fill="#BF85BF"/>
<path d="M8.51787 12.1904H0.625C0.279822 12.1904 0 12.4703 0 12.8154V13.0892C0 13.4344 0.279822 13.7142 0.625 13.7142H8.51787C8.86305 13.7142 9.14287 13.4344 9.14287 13.0892V12.8154C9.14287 12.4703 8.86305 12.1904 8.51787 12.1904Z" fill="#BF85BF"/>
<path d="M23.756 3.04785H8.24414C7.89896 3.04785 7.61914 3.32767 7.61914 3.67285V3.9466C7.61914 4.29178 7.89896 4.5716 8.24414 4.5716H23.756C24.1012 4.5716 24.381 4.29178 24.381 3.9466V3.67285C24.381 3.32767 24.1012 3.04785 23.756 3.04785Z" fill="#F7BA3E"/>
<path d="M5.47025 3.04785H0.625C0.279822 3.04785 0 3.32767 0 3.67285V3.9466C0 4.29178 0.279822 4.5716 0.625 4.5716H5.47025C5.81543 4.5716 6.09525 4.29178 6.09525 3.9466V3.67285C6.09525 3.32767 5.81543 3.04785 5.47025 3.04785Z" fill="#EA5E5E"/>
<path d="M8.51784 27.4287H6.72021C6.37504 27.4287 6.09521 27.7085 6.09521 28.0537V28.3275C6.09521 28.6726 6.37504 28.9525 6.72021 28.9525H8.51784C8.86302 28.9525 9.14284 28.6726 9.14284 28.3275V28.0537C9.14284 27.7085 8.86302 27.4287 8.51784 27.4287Z" fill="#F7BA3E"/>
<path d="M8.51784 9.14307H6.72021C6.37504 9.14307 6.09521 9.42289 6.09521 9.76807V10.0418C6.09521 10.387 6.37504 10.6668 6.72021 10.6668H8.51784C8.86302 10.6668 9.14284 10.387 9.14284 10.0418V9.76807C9.14284 9.42289 8.86302 9.14307 8.51784 9.14307Z" fill="#56B3B4"/>
<path d="M3.94637 27.4287H0.625C0.279822 27.4287 0 27.7085 0 28.0537V28.3275C0 28.6726 0.279822 28.9525 0.625 28.9525H3.94637C4.29155 28.9525 4.57137 28.6726 4.57137 28.3275V28.0537C4.57137 27.7085 4.29155 27.4287 3.94637 27.4287Z" fill="#56B3B4"/>
<path d="M3.94637 9.14307H0.625C0.279822 9.14307 0 9.42289 0 9.76807V10.0418C0 10.387 0.279822 10.6668 0.625 10.6668H3.94637C4.29155 10.6668 4.57137 10.387 4.57137 10.0418V9.76807C4.57137 9.42289 4.29155 9.14307 3.94637 9.14307Z" fill="#F7BA3E"/>
<path opacity="0.5" d="M22.2322 27.4287H20.4346C20.0894 27.4287 19.8096 27.7085 19.8096 28.0537V28.3275C19.8096 28.6726 20.0894 28.9525 20.4346 28.9525H22.2322C22.5774 28.9525 22.8572 28.6726 22.8572 28.3275V28.0537C22.8572 27.7085 22.5774 27.4287 22.2322 27.4287Z" fill="#D0D4D8"/>
<path opacity="0.5" d="M17.6605 27.4287H11.2915C10.9463 27.4287 10.6665 27.7085 10.6665 28.0537V28.3275C10.6665 28.6726 10.9463 28.9525 11.2915 28.9525H17.6605C18.0057 28.9525 18.2855 28.6726 18.2855 28.3275V28.0537C18.2855 27.7085 18.0057 27.4287 17.6605 27.4287Z" fill="#D0D4D8"/>
<path opacity="0.5" d="M31.3749 27.4287H25.0059C24.6607 27.4287 24.3809 27.7085 24.3809 28.0537V28.3275C24.3809 28.6726 24.6607 28.9525 25.0059 28.9525H31.3749C31.72 28.9525 31.9999 28.6726 31.9999 28.3275V28.0537C31.9999 27.7085 31.72 27.4287 31.3749 27.4287Z" fill="#D0D4D8"/>
<path d="M25.2797 15.2383H12.8154C12.4703 15.2383 12.1904 15.5181 12.1904 15.8633V16.137C12.1904 16.4822 12.4703 16.762 12.8154 16.762H25.2797C25.6249 16.762 25.9047 16.4822 25.9047 16.137V15.8633C25.9047 15.5181 25.6249 15.2383 25.2797 15.2383Z" fill="#56B3B4"/>
<path d="M10.0415 15.2383H5.19629C4.85111 15.2383 4.57129 15.5181 4.57129 15.8633V16.137C4.57129 16.4822 4.85111 16.762 5.19629 16.762H10.0415C10.3867 16.762 10.6665 16.4822 10.6665 16.137V15.8633C10.6665 15.5181 10.3867 15.2383 10.0415 15.2383Z" fill="#F7BA3E"/>
<path d="M2.42263 15.2383H0.625C0.279822 15.2383 0 15.5181 0 15.8633V16.137C0 16.4822 0.279822 16.762 0.625 16.762H2.42263C2.7678 16.762 3.04763 16.4822 3.04763 16.137V15.8633C3.04763 15.5181 2.7678 15.2383 2.42263 15.2383Z" fill="#EA5E5E"/>
<path d="M20.7084 6.09521H14.3394C13.9942 6.09521 13.7144 6.37504 13.7144 6.72021V6.99396C13.7144 7.33914 13.9942 7.61896 14.3394 7.61896H20.7084C21.0535 7.61896 21.3334 7.33914 21.3334 6.99396V6.72021C21.3334 6.37504 21.0535 6.09521 20.7084 6.09521Z" fill="#BF85BF"/>
<path d="M11.5655 6.09521H0.625C0.279822 6.09521 0 6.37504 0 6.72021V6.99396C0 7.33914 0.279822 7.61896 0.625 7.61896H11.5655C11.9107 7.61896 12.1905 7.33914 12.1905 6.99396V6.72021C12.1905 6.37504 11.9107 6.09521 11.5655 6.09521Z" fill="#56B3B4"/>
<path d="M19.1844 21.3335H5.19629C4.85111 21.3335 4.57129 21.6133 4.57129 21.9585V22.2322C4.57129 22.5774 4.85111 22.8572 5.19629 22.8572H19.1844C19.5296 22.8572 19.8094 22.5774 19.8094 22.2322V21.9585C19.8094 21.6133 19.5296 21.3335 19.1844 21.3335Z" fill="#F7BA3E"/>
<path d="M2.42263 21.3335H0.625C0.279822 21.3335 0 21.6133 0 21.9585V22.2322C0 22.5774 0.279822 22.8572 0.625 22.8572H2.42263C2.7678 22.8572 3.04763 22.5774 3.04763 22.2322V21.9585C3.04763 21.6133 2.7678 21.3335 2.42263 21.3335Z" fill="#BF85BF"/>
<path d="M26.8035 9.14307H18.9106C18.5655 9.14307 18.2856 9.42289 18.2856 9.76807V10.0418C18.2856 10.387 18.5655 10.6668 18.9106 10.6668H26.8035C27.1487 10.6668 27.4285 10.387 27.4285 10.0418V9.76807C27.4285 9.42289 27.1487 9.14307 26.8035 9.14307Z" fill="#EA5E5E"/>
<path d="M26.8035 12.1904H18.9106C18.5655 12.1904 18.2856 12.4703 18.2856 12.8154V13.0892C18.2856 13.4344 18.5655 13.7142 18.9106 13.7142H26.8035C27.1487 13.7142 27.4285 13.4344 27.4285 13.0892V12.8154C27.4285 12.4703 27.1487 12.1904 26.8035 12.1904Z" fill="#F7BA3E"/>
<path d="M19.1845 0H0.625C0.279822 0 0 0.279822 0 0.625V0.89875C0 1.24393 0.279822 1.52375 0.625 1.52375H19.1845C19.5297 1.52375 19.8095 1.24393 19.8095 0.89875V0.625C19.8095 0.279822 19.5297 0 19.1845 0Z" fill="#56B3B4"/>
<path opacity="0.5" d="M31.3751 0H21.9585C21.6133 0 21.3335 0.279822 21.3335 0.625V0.89875C21.3335 1.24393 21.6133 1.52375 21.9585 1.52375H31.3751C31.7203 1.52375 32.0001 1.24393 32.0001 0.89875V0.625C32.0001 0.279822 31.7203 0 31.3751 0Z" fill="#D0D4D8"/>
<path opacity="0.5" d="M25.2799 21.3335H21.9585C21.6133 21.3335 21.3335 21.6133 21.3335 21.9585V22.2322C21.3335 22.5774 21.6133 22.8572 21.9585 22.8572H25.2799C25.625 22.8572 25.9049 22.5774 25.9049 22.2322V21.9585C25.9049 21.6133 25.625 21.3335 25.2799 21.3335Z" fill="#D0D4D8"/>
<path opacity="0.5" d="M31.3751 21.3335H28.0537C27.7085 21.3335 27.4287 21.6133 27.4287 21.9585V22.2322C27.4287 22.5774 27.7085 22.8572 28.0537 22.8572H31.3751C31.7203 22.8572 32.0001 22.5774 32.0001 22.2322V21.9585C32.0001 21.6133 31.7203 21.3335 31.3751 21.3335Z" fill="#D0D4D8"/>
<path opacity="0.5" d="M31.375 18.2856H26.5298C26.1846 18.2856 25.9048 18.5655 25.9048 18.9106V19.1844C25.9048 19.5296 26.1846 19.8094 26.5298 19.8094H31.375C31.7202 19.8094 32 19.5296 32 19.1844V18.9106C32 18.5655 31.7202 18.2856 31.375 18.2856Z" fill="#D0D4D8"/>
<path opacity="0.5" d="M31.375 3.04785H26.5298C26.1846 3.04785 25.9048 3.32767 25.9048 3.67285V3.9466C25.9048 4.29178 26.1846 4.5716 26.5298 4.5716H31.375C31.7202 4.5716 32 4.29178 32 3.9466V3.67285C32 3.32767 31.7202 3.04785 31.375 3.04785Z" fill="#D0D4D8"/>
<path opacity="0.5" d="M31.3751 15.2383H28.0537C27.7085 15.2383 27.4287 15.5181 27.4287 15.8633V16.137C27.4287 16.4822 27.7085 16.762 28.0537 16.762H31.3751C31.7203 16.762 32.0001 16.4822 32.0001 16.137V15.8633C32.0001 15.5181 31.7203 15.2383 31.3751 15.2383Z" fill="#D0D4D8"/>
<path opacity="0.5" d="M31.3751 6.09521H28.0537C27.7085 6.09521 27.4287 6.37504 27.4287 6.72021V6.99396C27.4287 7.33914 27.7085 7.61896 28.0537 7.61896H31.3751C31.7203 7.61896 32.0001 7.33914 32.0001 6.99396V6.72021C32.0001 6.37504 31.7203 6.09521 31.3751 6.09521Z" fill="#D0D4D8"/>
<path opacity="0.5" d="M31.3748 9.14307H29.5771C29.232 9.14307 28.9521 9.42289 28.9521 9.76807V10.0418C28.9521 10.387 29.232 10.6668 29.5771 10.6668H31.3748C31.72 10.6668 31.9998 10.387 31.9998 10.0418V9.76807C31.9998 9.42289 31.72 9.14307 31.3748 9.14307Z" fill="#D0D4D8"/>
<path opacity="0.5" d="M31.3748 12.1904H29.5771C29.232 12.1904 28.9521 12.4703 28.9521 12.8154V13.0892C28.9521 13.4344 29.232 13.7142 29.5771 13.7142H31.3748C31.72 13.7142 31.9998 13.4344 31.9998 13.0892V12.8154C31.9998 12.4703 31.72 12.1904 31.3748 12.1904Z" fill="#D0D4D8"/>
<path opacity="0.5" d="M31.3748 24.3809H17.3867C17.0415 24.3809 16.7617 24.6607 16.7617 25.0059V25.2796C16.7617 25.6248 17.0415 25.9046 17.3867 25.9046H31.3748C31.72 25.9046 31.9998 25.6248 31.9998 25.2796V25.0059C31.9998 24.6607 31.72 24.3809 31.3748 24.3809Z" fill="#D0D4D8"/>
<path opacity="0.5" d="M14.6129 24.3809H11.2915C10.9463 24.3809 10.6665 24.6607 10.6665 25.0059V25.2796C10.6665 25.6248 10.9463 25.9046 11.2915 25.9046H14.6129C14.9581 25.9046 15.2379 25.6248 15.2379 25.2796V25.0059C15.2379 24.6607 14.9581 24.3809 14.6129 24.3809Z" fill="#D0D4D8"/>
<path opacity="0.5" d="M31.3748 30.4761H23.4819C23.1368 30.4761 22.8569 30.7559 22.8569 31.1011V31.3748C22.8569 31.72 23.1368 31.9998 23.4819 31.9998H31.3748C31.72 31.9998 31.9998 31.72 31.9998 31.3748V31.1011C31.9998 30.7559 31.72 30.4761 31.3748 30.4761Z" fill="#D0D4D8"/>
<path opacity="0.5" d="M20.7081 30.4761H11.2915C10.9463 30.4761 10.6665 30.7559 10.6665 31.1011V31.3748C10.6665 31.72 10.9463 31.9998 11.2915 31.9998H20.7081C21.0533 31.9998 21.3331 31.72 21.3331 31.3748V31.1011C21.3331 30.7559 21.0533 30.4761 20.7081 30.4761Z" fill="#D0D4D8"/>
<path opacity="0.5" d="M16.1368 9.14307H11.2915C10.9463 9.14307 10.6665 9.42289 10.6665 9.76807V10.0418C10.6665 10.387 10.9463 10.6668 11.2915 10.6668H16.1368C16.4819 10.6668 16.7618 10.387 16.7618 10.0418V9.76807C16.7618 9.42289 16.4819 9.14307 16.1368 9.14307Z" fill="#D0D4D8"/>
<path opacity="0.5" d="M16.1368 12.1904H11.2915C10.9463 12.1904 10.6665 12.4703 10.6665 12.8154V13.0892C10.6665 13.4344 10.9463 13.7142 11.2915 13.7142H16.1368C16.4819 13.7142 16.7618 13.4344 16.7618 13.0892V12.8154C16.7618 12.4703 16.4819 12.1904 16.1368 12.1904Z" fill="#D0D4D8"/>
</g>
<defs>
<clipPath id="clip0_42_32788">
<rect width="32" height="32" fill="white"/>
</clipPath>
</defs>
</svg>
