<svg width="32" height="32" viewBox="0 0 32 32" fill="none" xmlns="http://www.w3.org/2000/svg">
<path d="M25.514 12.8461C25.462 11.9081 25.723 11.0211 25.305 10.2921C24.262 8.46707 21.656 7.42507 16.442 7.42507V7.37207V7.42407C10.707 7.42407 8.25701 8.46707 7.21501 10.2911C6.86073 11.0939 6.70008 11.9687 6.74601 12.8451C6.55354 13.647 6.46581 14.4706 6.48501 15.2951C6.64101 16.4421 6.74601 17.5891 6.90201 18.6311C7.05801 19.5171 8.31001 20.1951 8.46601 21.0311C8.77901 23.2731 10.76 24.3151 16.494 24.3151V24.5761H16.394V24.3151C21.607 24.3151 23.794 23.2721 24.11 21.0311C24.21 20.1971 25.257 19.5191 25.41 18.6311C25.566 17.5881 25.619 16.4411 25.775 15.2951C25.7739 14.4719 25.6864 13.651 25.514 12.8461Z" fill="#EFCCA3"/>
<path d="M16.1821 13.6802C17.035 13.7581 17.8223 14.1705 18.3721 14.8272C19.1021 15.4532 20.3011 15.8702 20.8221 16.4432C21.4565 16.9691 21.9419 17.6521 22.2301 18.4242C22.4294 19.1551 22.5346 19.9086 22.5431 20.6662C22.5431 20.9272 22.6991 20.8752 23.1161 20.6662C23.9421 20.162 24.6815 19.5283 25.3061 18.7892C25.1501 19.6752 24.0551 20.4572 23.9511 21.2892C23.6381 23.5312 21.4511 24.6252 16.0791 24.6252H16.3921" fill="#CCAC8D"/>
<path d="M19.5188 11.9079C19.7278 12.5859 20.4048 14.9319 19.0498 14.1499C19.5441 14.5382 19.878 15.095 19.9878 15.7139C20.0533 16.0457 20.2094 16.353 20.4389 16.6015C20.6684 16.8501 20.9622 17.0302 21.2878 17.1219C22.1883 17.2554 23.1052 17.0306 23.8418 16.4959C24.2741 16.0816 24.5705 15.5457 24.6915 14.9593C24.8126 14.3729 24.7527 13.7635 24.5198 13.2119C24.3612 12.7627 24.0741 12.3701 23.6941 12.0827C23.3142 11.7954 22.8582 11.6261 22.3828 11.5959C21.3998 11.3339 19.3098 11.1259 19.5188 11.9079Z" fill="#CCAC8D"/>
<path d="M22.178 16.339C23.2434 16.339 24.107 15.4753 24.107 14.41C24.107 13.3446 23.2434 12.481 22.178 12.481C21.1127 12.481 20.249 13.3446 20.249 14.41C20.249 15.4753 21.1127 16.339 22.178 16.339Z" fill="black"/>
<path d="M21.6558 14.0449C21.9435 14.0449 22.1768 13.8117 22.1768 13.5239C22.1768 13.2362 21.9435 13.0029 21.6558 13.0029C21.368 13.0029 21.1348 13.2362 21.1348 13.5239C21.1348 13.8117 21.368 14.0449 21.6558 14.0449Z" fill="white"/>
<path d="M19.2061 14.3062C20.1869 14.9943 21.0952 15.7803 21.9171 16.6522C22.8551 17.8522 22.8551 18.0602 22.8551 18.0602L22.1771 18.3732C21.6702 17.384 20.9382 16.5277 20.0401 15.8732C18.8401 15.1952 18.6851 14.6222 18.6851 14.6222L19.2061 14.3062Z" fill="#EFCCA3"/>
<path d="M16.2348 13.6802C15.3369 13.7559 14.5 14.1651 13.8888 14.8272C13.1588 15.4532 11.8558 15.8702 11.3888 16.4432C10.7385 16.9656 10.2353 17.6483 9.9288 18.4242C9.72947 19.1551 9.62428 19.9086 9.6158 20.6662C9.6158 20.9272 9.6678 20.9792 8.9898 20.6662C8.15175 20.1789 7.40961 19.5428 6.7998 18.7892C6.9558 19.6752 8.0508 20.4572 8.1548 21.2892C8.4678 23.4792 10.6548 24.5732 16.0268 24.5732H16.3918" fill="#CCAC8D"/>
<path d="M21.2391 17.2769C20.6409 16.4834 19.8701 15.8363 18.985 15.3847C18.0999 14.933 17.1236 14.6886 16.1301 14.6699C15.1377 14.6948 14.1636 14.942 13.2795 15.3931C12.3953 15.8443 11.6235 16.488 11.0211 17.2769C10.6198 17.6948 10.3177 18.1976 10.1371 18.748C9.95657 19.2985 9.90221 19.8826 9.97807 20.4569C9.97807 25.0969 11.5941 23.6889 12.6891 24.2629C13.7796 24.6268 14.9394 24.7339 16.0781 24.5759C17.2167 24.7363 18.3771 24.6291 19.4671 24.2629C20.5621 23.6899 22.1781 25.0969 22.1781 20.4569C22.3074 19.8908 22.2889 19.301 22.1245 18.7441C21.96 18.1872 21.6551 17.682 21.2391 17.2769Z" fill="#56332B"/>
<path d="M16.0261 15.9741C15.9868 16.8428 15.829 17.7021 15.5571 18.5281L16.1301 18.3721L16.0261 15.9741Z" fill="#442823"/>
<path d="M16.1821 15.9741C16.2214 16.8428 16.3792 17.7021 16.6511 18.5281L16.0781 18.3721L16.1821 15.9741Z" fill="#442823"/>
<path d="M14.3579 15.4531C14.1489 14.9321 14.9309 14.0981 16.1829 14.0981C17.4349 14.0981 18.2159 14.9321 18.0079 15.4531C17.7999 15.9741 16.9649 16.1311 16.1829 16.1311C15.3479 16.1301 14.5659 15.9741 14.3579 15.4531Z" fill="#56332B"/>
<path d="M16.1822 15.9739C16.1822 15.8739 16.9122 15.8739 17.3292 15.6089C17.3292 15.6089 16.4952 15.8699 16.3382 15.7649C16.2304 15.6695 16.1569 15.5412 16.1292 15.3999C16.1015 15.5412 16.028 15.6695 15.9202 15.7649C15.7642 15.8649 14.8252 15.6089 14.8252 15.6089C15.2341 15.6992 15.6353 15.8212 16.0252 15.9739V16.3909C15.9926 17.0702 16.0261 17.7511 16.1252 18.4239C16.2812 18.6329 16.2252 16.9639 16.2252 16.3909C16.1884 16.2551 16.1739 16.1143 16.1822 15.9739Z" fill="black"/>
<path d="M16.1819 18.9448C16.7712 19.0234 17.329 19.2574 17.7979 19.6228C17.3902 19.0944 16.8238 18.7107 16.1819 18.5278C15.4458 18.6876 14.7953 19.1153 14.3569 19.7278C14.8709 19.2863 15.5078 19.013 16.1819 18.9448Z" fill="#7F4A41"/>
<path d="M16.0778 22.8001C15.26 22.7549 14.4524 22.5971 13.6778 22.3311C13.5218 22.2791 13.3648 22.3831 13.2088 22.3311C11.949 21.9741 10.8353 21.2257 10.0288 20.1941V20.4031C10.0288 25.0431 11.6448 23.6351 12.7398 24.2091C13.8303 24.5729 14.9901 24.6801 16.1288 24.5221C17.2674 24.6825 18.4278 24.5753 19.5178 24.2091C20.6128 23.6361 22.2288 25.0431 22.2288 20.4031V19.9341C21.4572 21.0674 20.3158 21.8974 18.9998 22.2821C18.8438 22.3341 18.5828 22.2301 18.4268 22.2301C17.6825 22.554 16.8878 22.7468 16.0778 22.8001Z" fill="#442823"/>
<path d="M13.9412 20.2998C13.9412 20.2998 13.3682 21.9678 13.7852 22.6998L13.2642 22.4908C13.4352 21.7447 13.6615 21.0123 13.9412 20.2998ZM18.3202 20.2998C18.3202 20.2998 18.8932 21.9678 18.4762 22.6998L19.0002 22.4908C18.8532 21.7381 18.6252 21.0035 18.3202 20.2998Z" fill="#442823"/>
<path d="M12.5849 11.9078C12.3759 12.5858 11.6989 14.9318 13.0539 14.1498C12.5597 14.5381 12.2257 15.0949 12.1159 15.7138C12.0505 16.0456 11.8943 16.3529 11.6649 16.6014C11.4354 16.85 11.1415 17.0301 10.8159 17.1218C9.91472 17.2575 8.99622 17.0342 8.25794 16.4998C7.82561 16.0855 7.52929 15.5496 7.40822 14.9632C7.28715 14.3768 7.34703 13.7674 7.57994 13.2158C7.73854 12.7666 8.02566 12.374 8.40561 12.0866C8.78555 11.7993 9.24156 11.63 9.71694 11.5998C10.7089 11.3338 12.7939 11.1258 12.5849 11.9078Z" fill="#CCAC8D"/>
<path d="M16.1302 18.528C16.7764 18.7099 17.3541 19.0794 17.7902 19.5897C18.2263 20.1001 18.5012 20.7283 18.5802 21.395V21.295C18.5637 20.6026 18.3122 19.9364 17.867 19.4059C17.4217 18.8754 16.8092 18.5122 16.1302 18.376C15.4469 18.5034 14.829 18.8641 14.3821 19.3965C13.9353 19.9289 13.6872 20.5999 13.6802 21.295V21.395C13.7678 20.7315 14.0459 20.1075 14.4807 19.5987C14.9155 19.0899 15.4884 18.718 16.1302 18.528Z" fill="black"/>
<path d="M16.6243 15.4408C16.7077 15.4192 16.7403 15.2661 16.6972 15.0987C16.654 14.9313 16.5514 14.8131 16.468 14.8346C16.3845 14.8561 16.3519 15.0092 16.3951 15.1766C16.4382 15.344 16.5408 15.4623 16.6243 15.4408Z" fill="#331712"/>
<path d="M15.7589 15.1934C15.8101 15.0283 15.7849 14.8738 15.7026 14.8482C15.6204 14.8227 15.5121 14.9359 15.4609 15.101C15.4097 15.2661 15.4349 15.4206 15.5172 15.4461C15.5994 15.4717 15.7077 15.3585 15.7589 15.1934Z" fill="#331712"/>
<path d="M10.0311 16.339C11.0964 16.339 11.9601 15.4753 11.9601 14.41C11.9601 13.3446 11.0964 12.481 10.0311 12.481C8.96569 12.481 8.10205 13.3446 8.10205 14.41C8.10205 15.4753 8.96569 16.339 10.0311 16.339Z" fill="black"/>
<path d="M10.5518 14.0449C10.8395 14.0449 11.0728 13.8117 11.0728 13.5239C11.0728 13.2362 10.8395 13.0029 10.5518 13.0029C10.264 13.0029 10.0308 13.2362 10.0308 13.5239C10.0308 13.8117 10.264 14.0449 10.5518 14.0449Z" fill="white"/>
<path d="M16.7002 14.4102C16.7002 14.4102 16.1792 14.6192 16.0742 14.6712C15.8547 14.6131 15.644 14.5253 15.4482 14.4102H16.7002Z" fill="#7F4A41"/>
<path d="M12.9 14.3062C11.9192 14.9943 11.0108 15.7803 10.189 16.6522C9.25098 17.8522 9.25098 18.0602 9.25098 18.0602L9.92898 18.3732C10.4358 17.384 11.1678 16.5277 12.066 15.8732C13.266 15.1952 13.421 14.6222 13.421 14.6222L12.9 14.3062Z" fill="#EFCCA3"/>
<path d="M9.09209 10.8128C8.72878 11.7746 8.04833 12.5838 7.16309 13.1068C7.71598 13.0412 8.22316 12.7676 8.58149 12.3414C8.93982 11.9153 9.1224 11.3687 9.09209 10.8128ZM22.9081 10.8128C23.2714 11.7746 23.9518 12.5838 24.8371 13.1068C24.2842 13.0412 23.777 12.7676 23.4187 12.3414C23.0603 11.9153 22.8778 11.3687 22.9081 10.8128ZM19.3101 13.8358C18.4721 13.0341 17.3885 12.5381 16.2341 12.4278H16.3901C15.8127 12.4208 15.2412 12.5437 14.7178 12.7874C14.1943 13.0312 13.7324 13.3894 13.3661 13.8358C14.2264 13.1549 15.2929 12.787 16.3901 12.7928C17.4402 12.8682 18.4498 13.2289 19.3101 13.8358ZM17.7461 10.9688C17.3645 10.4669 16.8045 10.131 16.1821 10.0308H16.3381C16.0261 10.0413 15.7223 10.1335 15.457 10.2981C15.1917 10.4626 14.9741 10.6939 14.8261 10.9688C15.2216 10.5532 15.7647 10.3097 16.3381 10.2908C16.6075 10.2971 16.8725 10.3609 17.1153 10.4778C17.3581 10.5947 17.5731 10.7621 17.7461 10.9688ZM10.0311 17.7458C9.48471 18.0272 8.85493 18.1015 8.25809 17.9548H8.05009C7.6373 17.5295 7.33335 17.0108 7.16409 16.4428C7.38063 16.9886 7.80028 17.4293 8.33489 17.6723C8.8695 17.9152 9.47747 17.9416 10.0311 17.7458ZM22.1261 17.7458C22.6725 18.0272 23.3022 18.1015 23.8991 17.9548H23.6901C23.9968 17.8319 24.2624 17.6247 24.4562 17.3571C24.65 17.0895 24.764 16.7725 24.7851 16.4428C24.7049 16.7089 24.5707 16.9556 24.3909 17.1675C24.211 17.3794 23.9894 17.5519 23.7398 17.6742C23.4902 17.7965 23.2181 17.866 22.9404 17.8783C22.6627 17.8906 22.3855 17.8455 22.1261 17.7458Z" fill="#CCAC8D"/>
<path d="M11.2299 10.709C11.9745 10.5628 12.7432 10.5971 13.4719 10.809C14.4099 11.122 13.6809 12.373 13.8369 12.425C14.1374 12.1512 14.4927 11.9445 14.8793 11.8187C15.2658 11.6928 15.6748 11.6506 16.0789 11.695C17.8519 11.795 18.0599 12.581 18.3209 12.425C18.5819 12.325 18.0599 10.235 20.7709 10.705C20.7709 10.705 18.0079 9.975 18.1119 11.956C17.5413 11.5832 16.8783 11.3765 16.197 11.3588C15.5157 11.3412 14.843 11.5133 14.2539 11.856C14.2539 11.856 14.8269 9.927 11.2299 10.709ZM10.4999 8C10.4999 8 8.09986 10.972 7.78886 12.118C7.42386 13.265 7.16286 18.061 6.85086 18.739L5.75586 14.045L7.78886 9.145L10.4999 8ZM21.6559 8C21.6559 8 24.0559 10.972 24.3669 12.118C24.7319 13.265 24.9929 18.061 25.3049 18.739L26.3999 14.045L24.3669 9.145L21.6559 8Z" fill="#CCAC8D"/>
<path d="M21.4999 8.00021C22.955 9.23643 24.0829 10.8122 24.7839 12.5882C25.5139 15.0382 25.2009 18.0622 25.7749 18.4272C26.6089 18.9482 27.4949 15.8202 27.8079 15.5082C28.2769 14.9872 29.8929 13.6312 29.9979 13.3712C30.1029 13.1112 26.7659 9.46121 25.2539 8.73121C23.5849 7.89321 21.3999 7.78921 21.4999 8.00021Z" fill="#56332B"/>
<path d="M23.6899 9.2998C25.5357 11.8161 26.5722 14.8344 26.6619 17.9538L27.8619 15.5038C26.9623 13.1449 25.5352 11.0228 23.6899 9.2998Z" fill="#442823"/>
<path d="M10.4999 8.00021C9.04487 9.23643 7.91694 10.8122 7.21593 12.5882C6.48593 15.0382 6.79893 18.0622 6.22493 18.4272C5.39093 18.9482 4.50493 15.8202 4.19193 15.5082C3.72293 14.9872 2.10693 13.6312 2.00193 13.3712C1.89693 13.1112 5.23393 9.46121 6.74593 8.73121C8.41493 7.89321 10.5999 7.78921 10.4999 8.00021Z" fill="#56332B"/>
<path d="M8.31014 9.2998C6.46439 11.8161 5.42783 14.8344 5.33814 17.9538L4.14014 15.4998C5.03978 13.1425 6.46607 11.0219 8.31014 9.2998Z" fill="#442823"/>
<path d="M6.64209 18.0071C6.72456 18.562 6.91955 19.0942 7.21509 19.5711C7.58009 19.9361 7.31509 19.2581 7.31509 19.2581C7.31509 19.2581 6.95009 19.0491 7.00209 17.5381C7.05409 16.0271 6.64209 18.0071 6.64209 18.0071ZM25.4101 18.0071C25.3276 18.562 25.1326 19.0942 24.8371 19.5711C24.4721 19.9361 24.7371 19.2581 24.7371 19.2581C24.7371 19.2581 25.1021 19.0491 25.0501 17.5381C24.9931 16.0781 25.4101 18.0071 25.4101 18.0071Z" fill="#CCAC8D"/>
<path d="M13.8889 17.2768C13.9751 17.2768 14.0449 17.207 14.0449 17.1208C14.0449 17.0347 13.9751 16.9648 13.8889 16.9648C13.8028 16.9648 13.7329 17.0347 13.7329 17.1208C13.7329 17.207 13.8028 17.2768 13.8889 17.2768Z" fill="#442823"/>
<path d="M12.8459 18.3721C12.9321 18.3721 13.0019 18.3022 13.0019 18.2161C13.0019 18.1299 12.9321 18.0601 12.8459 18.0601C12.7598 18.0601 12.6899 18.1299 12.6899 18.2161C12.6899 18.3022 12.7598 18.3721 12.8459 18.3721Z" fill="#442823"/>
<path d="M12.533 17.2768C12.6191 17.2768 12.689 17.207 12.689 17.1208C12.689 17.0347 12.6191 16.9648 12.533 16.9648C12.4468 16.9648 12.377 17.0347 12.377 17.1208C12.377 17.207 12.4468 17.2768 12.533 17.2768Z" fill="#442823"/>
<path d="M18.1638 17.2768C18.25 17.2768 18.3198 17.207 18.3198 17.1208C18.3198 17.0347 18.25 16.9648 18.1638 16.9648C18.0777 16.9648 18.0078 17.0347 18.0078 17.1208C18.0078 17.207 18.0777 17.2768 18.1638 17.2768Z" fill="#442823"/>
<path d="M19.154 18.3721C19.2402 18.3721 19.31 18.3022 19.31 18.2161C19.31 18.1299 19.2402 18.0601 19.154 18.0601C19.0679 18.0601 18.998 18.1299 18.998 18.2161C18.998 18.3022 19.0679 18.3721 19.154 18.3721Z" fill="#442823"/>
<path d="M19.467 17.2768C19.5532 17.2768 19.623 17.207 19.623 17.1208C19.623 17.0347 19.5532 16.9648 19.467 16.9648C19.3809 16.9648 19.311 17.0347 19.311 17.1208C19.311 17.207 19.3809 17.2768 19.467 17.2768Z" fill="#442823"/>
</svg>
