<svg width="32" height="32" viewBox="0 0 32 32" fill="none" xmlns="http://www.w3.org/2000/svg">
<path d="M19.7476 19.4796L19.1339 20.5454C19.043 20.7032 18.9122 20.8342 18.7546 20.9253C18.597 21.0164 18.4182 21.0643 18.2361 21.0643H13.5339C13.3518 21.0643 13.173 21.0164 13.0154 20.9253C12.8578 20.8342 12.727 20.7032 12.6361 20.5454L12.0222 19.4796H19.7476ZM21.466 16.4958L20.3837 18.3751H11.3862L10.304 16.4958H21.466ZM20.4235 13.5781L21.4677 15.3913H10.3022L11.3465 13.5781H20.4235ZM18.236 10.8198C18.418 10.8198 18.5969 10.8677 18.7545 10.9588C18.9122 11.0499 19.043 11.1809 19.1339 11.3387L19.7874 12.4736H11.9826L12.6362 11.3387C12.7271 11.181 12.8579 11.05 13.0155 10.9589C13.1731 10.8678 13.352 10.8198 13.534 10.8198H18.2361H18.236Z" fill="#00435B"/>
<path d="M6.69038 10.3255C6.1695 7.79972 6.05763 5.86247 6.39438 4.45585C6.59463 3.61923 6.96063 2.93673 7.51738 2.44423C8.10513 1.92435 8.84813 1.66923 9.68313 1.66923C11.0604 1.66923 12.5084 2.29735 14.0556 3.49048C14.6869 3.97723 15.3419 4.56385 16.0221 5.25072C16.0764 5.1811 16.1375 5.11535 16.2057 5.05447C18.129 3.34073 19.7482 2.27573 21.1332 1.86523C21.9567 1.62098 22.7299 1.59773 23.4339 1.83473C24.1771 2.08473 24.7692 2.60185 25.1871 3.32598C25.8766 4.5211 26.0584 6.09147 25.8014 8.0306C25.6966 8.82097 25.5175 9.68185 25.2644 10.6147C25.3599 10.6262 25.4556 10.6475 25.5504 10.6788C27.9905 11.4876 29.7185 12.3571 30.7646 13.351C31.3871 13.9422 31.7935 14.6005 31.9405 15.3292C32.0955 16.0983 31.9442 16.8697 31.527 17.5933C30.8387 18.7868 29.5732 19.728 27.7705 20.4735C27.0467 20.7728 26.2276 21.044 25.3125 21.2878C25.3542 21.3821 25.3867 21.4822 25.4084 21.5872C25.9292 24.113 26.041 26.0502 25.7044 27.4568C25.5041 28.2935 25.138 28.976 24.5812 29.4685C23.9936 29.9883 23.2505 30.2435 22.4156 30.2435C21.0382 30.2435 19.5904 29.6153 18.0431 28.4222C17.4051 27.9302 16.7429 27.3363 16.0548 26.64C15.9823 26.7532 15.8947 26.8559 15.7942 26.9452C13.871 28.6592 12.2518 29.724 10.8668 30.1346C10.0433 30.3788 9.27013 30.4021 8.56613 30.1651C7.82288 29.9151 7.23075 29.398 6.81288 28.6738C6.12338 27.4787 5.94163 25.9083 6.19863 23.9692C6.30725 23.1503 6.49563 22.2556 6.76338 21.2836C6.65665 21.2728 6.55144 21.2503 6.44963 21.2165C4.0095 20.4077 2.28151 19.5382 1.23538 18.5443C0.612881 17.9531 0.206506 17.2948 0.0595058 16.5661C-0.0954941 15.797 0.0557558 15.0255 0.473006 14.3018C1.16126 13.1085 2.42675 12.1672 4.2295 11.4218C4.97488 11.1135 5.82125 10.8352 6.7695 10.5857C6.73518 10.5016 6.70869 10.4145 6.69038 10.3255Z" fill="#002B3B"/>
<path d="M23.7059 21.8355C23.8223 21.8149 23.9423 21.8399 24.0408 21.9053C24.1394 21.9707 24.209 22.0715 24.2352 22.1868L24.2381 22.2008L24.264 22.3352C25.1027 26.7447 24.5119 28.9495 22.4915 28.9495C20.5149 28.9495 17.9985 27.0682 14.9425 23.3054C14.8882 23.2385 14.8537 23.1578 14.8431 23.0723C14.8324 22.9868 14.8459 22.9001 14.882 22.8219C14.9182 22.7437 14.9755 22.6772 15.0476 22.63C15.1196 22.5828 15.2035 22.5567 15.2896 22.5548H15.3039L15.4649 22.5559C16.7509 22.5629 18.001 22.518 19.2154 22.4214C20.6487 22.3073 22.1456 22.112 23.7059 21.8355ZM9.83073 18.5023L9.83848 18.5154L9.91923 18.6563C10.5664 19.7813 11.2405 20.849 11.9417 21.8597C12.7677 23.0497 13.6965 24.2544 14.728 25.4739C14.8045 25.5644 14.8433 25.681 14.8361 25.7993C14.8289 25.9176 14.7763 26.0286 14.6894 26.1092L14.6777 26.1195L14.574 26.2089C11.1606 29.1335 8.94211 29.7174 7.91848 27.9604C6.91636 26.2408 7.27973 23.1138 9.00836 18.5795C9.03896 18.4992 9.09145 18.4291 9.15987 18.377C9.2283 18.325 9.30992 18.2931 9.39551 18.2851C9.4811 18.277 9.56723 18.2931 9.64415 18.3315C9.72107 18.3699 9.7857 18.4291 9.83073 18.5023ZM25.4379 11.9955L25.4519 12.0002L25.5804 12.0444C29.7935 13.51 31.3941 15.1207 30.3824 16.8763C29.3929 18.5933 26.5161 19.8435 21.7522 20.6268C21.6659 20.641 21.5773 20.6303 21.4968 20.596C21.4163 20.5617 21.3473 20.5051 21.2978 20.4329C21.2483 20.3608 21.2204 20.276 21.2174 20.1886C21.2143 20.1011 21.2362 20.0146 21.2806 19.9392C21.9629 18.7784 22.5775 17.6237 23.1242 16.4745C23.7442 15.1714 24.3261 13.7725 24.8699 12.2783C24.9093 12.1697 24.9882 12.0799 25.0909 12.0268C25.1935 11.9736 25.3124 11.961 25.4239 11.9914L25.4379 11.9955ZM10.5557 11.2577C10.6079 11.2883 10.6535 11.3289 10.6899 11.3771C10.7264 11.4254 10.753 11.4803 10.7682 11.5389C10.7834 11.5974 10.7869 11.6584 10.7785 11.7182C10.7702 11.7781 10.7501 11.8358 10.7195 11.8879C10.037 13.0485 9.42248 14.2034 8.87573 15.3525C8.25573 16.6557 7.67386 18.0544 7.13011 19.5488C7.08974 19.6598 7.00828 19.751 6.90257 19.8036C6.79687 19.8562 6.67498 19.8662 6.56211 19.8315L6.54811 19.8269L6.41961 19.7825C2.20649 18.317 0.605861 16.7063 1.61761 14.9508C2.60711 13.2337 5.48386 11.9835 10.2477 11.2003C10.354 11.1828 10.463 11.203 10.5557 11.2577ZM24.0815 4.03918C25.0836 5.75892 24.7202 8.88592 22.9916 13.4202C22.961 13.5005 22.9085 13.5707 22.8401 13.6227C22.7717 13.6747 22.69 13.7066 22.6044 13.7146C22.5189 13.7227 22.4327 13.7066 22.3558 13.6682C22.2789 13.6298 22.2143 13.5707 22.1692 13.4974L22.1615 13.4843L22.0807 13.3434C21.4336 12.2184 20.7595 11.1507 20.0582 10.14C19.2322 8.95005 18.3035 7.7453 17.272 6.5258C17.1954 6.4353 17.1567 6.31875 17.1639 6.20043C17.1711 6.0821 17.2236 5.97111 17.3106 5.89055L17.3222 5.88017L17.426 5.7908C20.8394 2.86618 23.0579 2.2823 24.0815 4.03918ZM9.68123 2.99268C11.658 2.99268 14.1744 4.87393 17.2302 8.63667C17.2845 8.70355 17.319 8.78431 17.3297 8.86979C17.3403 8.95526 17.3268 9.04202 17.2907 9.12021C17.2545 9.19839 17.1972 9.26487 17.1251 9.31208C17.0531 9.35929 16.9692 9.38535 16.8831 9.3873H16.8689L16.7079 9.3863C15.422 9.3793 14.1717 9.42417 12.9575 9.5208C11.524 9.63492 10.0271 9.83017 8.46686 10.1067C8.35041 10.1273 8.23051 10.1023 8.13198 10.0369C8.03345 9.97151 7.96385 9.87073 7.93761 9.75542L7.93461 9.7413L7.90873 9.60705C7.06998 5.19743 7.66073 2.99268 9.68123 2.99268Z" fill="#FF4154"/>
<path d="M13.9121 10.8779H17.8591C18.1427 10.8779 18.4213 10.9527 18.6667 11.0949C18.9121 11.237 19.1156 11.4413 19.2568 11.6873L21.2386 15.1406C21.3787 15.3847 21.4525 15.6612 21.4525 15.9427C21.4525 16.2241 21.3787 16.5007 21.2386 16.7448L19.2568 20.1981C19.1156 20.444 18.9121 20.6484 18.6667 20.7905C18.4213 20.9326 18.1427 21.0074 17.8591 21.0074H13.9121C13.3349 21.0074 12.8018 20.6987 12.5144 20.1981L10.5328 16.7448C10.3927 16.5007 10.319 16.2241 10.319 15.9427C10.319 15.6612 10.3927 15.3847 10.5328 15.1406L12.5145 11.6873C12.6557 11.4413 12.8592 11.237 13.1047 11.0949C13.3501 10.9527 13.6285 10.8779 13.9121 10.8779ZM17.2575 11.9202C17.835 11.9202 18.3685 12.2293 18.6556 12.7303L20.0376 15.1413C20.1775 15.3852 20.251 15.6615 20.251 15.9427C20.251 16.2238 20.1775 16.5001 20.0376 16.7441L18.6556 19.1551C18.5145 19.4012 18.3109 19.6057 18.0654 19.7479C17.8199 19.8902 17.5412 19.9651 17.2575 19.9651H14.5138C13.9363 19.9651 13.4028 19.6561 13.1156 19.1551L11.7336 16.7441C11.5938 16.5001 11.5203 16.2238 11.5203 15.9427C11.5203 15.6615 11.5938 15.3852 11.7336 15.1413L13.1156 12.7303C13.2567 12.4842 13.4603 12.2797 13.7058 12.1374C13.9513 11.9952 14.2299 11.9203 14.5136 11.9203L17.2575 11.9202ZM16.6091 13.0602H15.1621C14.8787 13.0602 14.6002 13.1349 14.3549 13.2769C14.1095 13.4189 13.906 13.6231 13.7648 13.8689L13.0345 15.1398C12.8941 15.3841 12.8203 15.6609 12.8203 15.9427C12.8203 16.2244 12.8941 16.5013 13.0345 16.7456L13.7648 18.0166C13.906 18.2624 14.1095 18.4666 14.3549 18.6085C14.6002 18.7505 14.8787 18.8253 15.1621 18.8253H16.6091C17.1861 18.8253 17.7191 18.5168 18.0065 18.0166L18.7368 16.7456C18.8771 16.5013 18.951 16.2244 18.951 15.9427C18.951 15.6609 18.8771 15.3841 18.7368 15.1398L18.0065 13.8688C17.8653 13.623 17.6618 13.4188 17.4164 13.2768C17.1711 13.1348 16.8926 13.0602 16.6091 13.0602ZM15.9849 14.1513C16.5614 14.1513 17.094 14.4593 17.3815 14.9588L17.4851 15.1388C17.6259 15.3833 17.7 15.6605 17.7 15.9427C17.7 16.2248 17.6259 16.502 17.4851 16.7466L17.3815 16.9266C17.2402 17.172 17.0367 17.3759 16.7915 17.5177C16.5463 17.6594 16.2681 17.7341 15.9849 17.7341H15.7864C15.5032 17.7341 15.2249 17.6594 14.9798 17.5177C14.7346 17.3759 14.5311 17.172 14.3898 16.9266L14.2861 16.7466C14.1454 16.502 14.0713 16.2248 14.0713 15.9427C14.0713 15.6605 14.1454 15.3833 14.2861 15.1388L14.3898 14.9588C14.5311 14.7133 14.7346 14.5095 14.9798 14.3677C15.2249 14.2259 15.5032 14.1513 15.7864 14.1513H15.9849ZM15.8859 15.2262C15.76 15.2261 15.6363 15.2592 15.5273 15.3221C15.4182 15.385 15.3276 15.4754 15.2646 15.5844C15.2017 15.6933 15.1686 15.8169 15.1686 15.9427C15.1686 16.0685 15.2017 16.192 15.2646 16.3009C15.3276 16.4099 15.4181 16.5004 15.5272 16.5633C15.6362 16.6263 15.7598 16.6594 15.8857 16.6594C16.0116 16.6594 16.1352 16.6263 16.2442 16.5633C16.3533 16.5004 16.4438 16.4099 16.5068 16.3009C16.5697 16.192 16.6028 16.0685 16.6028 15.9427C16.6028 15.8169 16.5697 15.6933 16.5068 15.5844C16.4438 15.4755 16.3533 15.385 16.2443 15.3221C16.1353 15.2593 16.0117 15.2262 15.8859 15.2262ZM10.0723 15.9427H11.3623H10.0723Z" fill="#FFD94C"/>
</svg>
