<svg width="32" height="32" viewBox="0 0 32 32" fill="none" xmlns="http://www.w3.org/2000/svg">
<path d="M15.9999 18.8499C17.5739 18.8499 18.8499 17.5739 18.8499 15.9999C18.8499 14.4259 17.5739 13.1499 15.9999 13.1499C14.4259 13.1499 13.1499 14.4259 13.1499 15.9999C13.1499 17.5739 14.4259 18.8499 15.9999 18.8499Z" fill="#61DAFB"/>
<path d="M26.8251 11.2999C26.2751 11.0999 25.7001 10.8999 25.1001 10.7249C25.2501 10.1249 25.3751 9.5249 25.4751 8.9499C26.0001 5.6499 25.4251 3.3249 23.8251 2.4249C23.3501 2.1499 22.8251 2.0249 22.2251 2.0249C20.4751 2.0249 18.2501 3.3249 16.0001 5.4999C13.7501 3.3249 11.5251 2.0249 9.7751 2.0249C9.1751 2.0249 8.6501 2.1499 8.1751 2.4249C6.5751 3.3499 6.0001 5.6749 6.5251 8.9499C6.6251 9.5249 6.7501 10.1249 6.9001 10.7249C6.3001 10.8999 5.7251 11.0749 5.1751 11.2999C2.0501 12.4999 0.350098 14.1499 0.350098 15.9999C0.350098 17.8499 2.0751 19.4999 5.1751 20.6999C5.7251 20.8999 6.3001 21.0999 6.9001 21.2749C6.7501 21.8749 6.6251 22.4749 6.5251 23.0499C6.0001 26.3499 6.5751 28.6749 8.1751 29.5749C8.6501 29.8499 9.1751 29.9749 9.7751 29.9749C11.5501 29.9749 13.7751 28.6749 16.0001 26.4999C18.2501 28.6749 20.4751 29.9749 22.2251 29.9749C22.8251 29.9749 23.3501 29.8499 23.8251 29.5749C25.4251 28.6499 26.0001 26.3249 25.4751 23.0499C25.3751 22.4749 25.2501 21.8749 25.1001 21.2749C25.7001 21.0999 26.2751 20.9249 26.8251 20.6999C29.9501 19.4999 31.6501 17.8499 31.6501 15.9999C31.6501 14.1499 29.9501 12.4999 26.8251 11.2999ZM23.1251 3.6749C24.1501 4.2749 24.5001 6.1249 24.0751 8.7499C24.0001 9.2749 23.8751 9.8249 23.7251 10.3999C22.4251 10.0999 21.0501 9.8999 19.6001 9.7749C18.7501 8.5749 17.8751 7.4999 17.0001 6.5249C18.8501 4.6999 20.7251 3.4499 22.2501 3.4499C22.5751 3.4499 22.8751 3.5249 23.1251 3.6749ZM20.3251 18.4999C19.8751 19.2999 19.3501 20.0999 18.8001 20.8999C17.8751 20.9749 16.9501 20.9999 16.0001 20.9999C15.0251 20.9999 14.1001 20.9749 13.2001 20.8999C12.6501 20.0999 12.1501 19.2999 11.7001 18.4999C11.2251 17.6749 10.7751 16.8249 10.3751 15.9999C10.7751 15.1749 11.2251 14.3249 11.7001 13.4999C12.1501 12.6999 12.6751 11.8999 13.2251 11.0999C14.1501 11.0249 15.0751 10.9999 16.0251 10.9999C17.0001 10.9999 17.9251 11.0249 18.8251 11.0999C19.3751 11.8999 19.8751 12.6999 20.3251 13.4999C20.8001 14.3249 21.2501 15.1749 21.6501 15.9999C21.2251 16.8249 20.8001 17.6499 20.3251 18.4999ZM22.4001 17.6749C22.7751 18.5499 23.0751 19.3999 23.3501 20.2499C22.5001 20.4499 21.6001 20.5999 20.6501 20.7249C20.9501 20.2499 21.2751 19.7499 21.5501 19.2249C21.8501 18.6999 22.1251 18.1749 22.4001 17.6749ZM16.0001 24.4499C15.4001 23.7999 14.8251 23.0999 14.2751 22.3749C14.8501 22.3999 15.4251 22.4249 16.0001 22.4249C16.5751 22.4249 17.1501 22.3999 17.7251 22.3749C17.1751 23.0999 16.6001 23.7999 16.0001 24.4499ZM11.3501 20.6999C10.4001 20.5749 9.5001 20.4249 8.6501 20.2249C8.9251 19.3999 9.2251 18.5249 9.6001 17.6499C9.8751 18.1499 10.1501 18.6749 10.4501 19.1749C10.7501 19.7249 11.0501 20.1999 11.3501 20.6999ZM9.6001 14.3249C9.2251 13.4499 8.9251 12.5999 8.6501 11.7499C9.5001 11.5499 10.4001 11.3999 11.3501 11.2749C11.0501 11.7499 10.7251 12.2499 10.4501 12.7749C10.1501 13.2999 9.8751 13.8249 9.6001 14.3249ZM16.0001 7.5499C16.6001 8.1999 17.1751 8.8999 17.7251 9.6249C17.1501 9.5999 16.5751 9.5749 16.0001 9.5749C15.4251 9.5749 14.8501 9.5999 14.2751 9.6249C14.8251 8.8999 15.4001 8.1999 16.0001 7.5499ZM21.5501 12.7999L20.6501 11.2999C21.6001 11.4249 22.5001 11.5749 23.3501 11.7749C23.0751 12.5999 22.7751 13.4749 22.4001 14.3499C22.1251 13.8249 21.8501 13.2999 21.5501 12.7999ZM7.9251 8.7499C7.5001 6.1249 7.8501 4.2749 8.8751 3.6749C9.1251 3.5249 9.4251 3.4499 9.7501 3.4499C11.2501 3.4499 13.1251 4.6749 15.0001 6.5249C14.1251 7.4749 13.2501 8.5749 12.4001 9.7749C10.9501 9.8999 9.5751 10.1249 8.2751 10.3999C8.1251 9.8249 8.0251 9.2749 7.9251 8.7499ZM1.7501 15.9999C1.7501 14.8249 3.1751 13.5749 5.6751 12.6499C6.1751 12.4499 6.7251 12.2749 7.2751 12.1249C7.6751 13.3749 8.1751 14.6999 8.7751 16.0249C8.1751 17.3499 7.6501 18.6499 7.2751 19.8999C3.8251 18.8999 1.7501 17.3999 1.7501 15.9999ZM8.8751 28.3249C7.8501 27.7249 7.5001 25.8749 7.9251 23.2499C8.0001 22.7249 8.1251 22.1749 8.2751 21.5999C9.5751 21.8999 10.9501 22.0999 12.4001 22.2249C13.2501 23.4249 14.1251 24.4999 15.0001 25.4749C13.1501 27.2999 11.2751 28.5499 9.7501 28.5499C9.4251 28.5499 9.1251 28.4749 8.8751 28.3249ZM24.0751 23.2499C24.5001 25.8749 24.1501 27.7249 23.1251 28.3249C22.8751 28.4749 22.5751 28.5499 22.2501 28.5499C20.7501 28.5499 18.8751 27.3249 17.0001 25.4749C17.8751 24.5249 18.7501 23.4249 19.6001 22.2249C21.0501 22.0999 22.4251 21.8749 23.7251 21.5999C23.8751 22.1749 23.9751 22.7249 24.0751 23.2499ZM26.3251 19.3499C25.8251 19.5499 25.2751 19.7249 24.7251 19.8749C24.3251 18.6249 23.8251 17.2999 23.2251 15.9749C23.8251 14.6499 24.3501 13.3499 24.7251 12.0999C28.1751 13.0999 30.2501 14.5999 30.2501 15.9999C30.2501 17.1749 28.8001 18.4249 26.3251 19.3499Z" fill="#00D8FF"/>
</svg>
