<svg width="32" height="32" viewBox="0 0 32 32" fill="none" xmlns="http://www.w3.org/2000/svg">
<path d="M30.4502 23.2751C28.7752 24.1501 20.1002 27.7001 18.2502 28.6751C16.4002 29.6501 15.3752 29.6251 13.9252 28.9251C12.4752 28.2251 3.2502 24.5251 1.5752 23.7251C0.750195 23.3251 0.325195 23.0001 0.325195 22.6751V19.5001C0.325195 19.5001 12.3252 16.8751 14.2752 16.2001C16.2252 15.5001 16.8752 15.4751 18.5252 16.0751C20.1752 16.6751 30.0502 18.4501 31.6752 19.0501V22.1751C31.6752 22.5001 31.3002 22.8501 30.4502 23.2751Z" fill="#A41E11"/>
<path d="M30.4502 20.1248C28.7752 20.9998 20.1002 24.5498 18.2502 25.5248C16.4002 26.4998 15.3752 26.4748 13.9252 25.7748C12.4752 25.0748 3.25015 21.3498 1.57515 20.5498C-0.0748457 19.7498 -0.124846 19.1998 1.50015 18.5748C3.12515 17.9248 12.3002 14.3248 14.2502 13.6498C16.2002 12.9498 16.8502 12.9248 18.5002 13.5248C20.1502 14.1248 28.7752 17.5498 30.4002 18.1498C32.0752 18.7498 32.1252 19.2498 30.4502 20.1248Z" fill="#D82C20"/>
<path d="M30.4502 18.1248C28.7752 18.9998 20.1002 22.5498 18.2502 23.5248C16.4002 24.4748 15.3752 24.4748 13.9252 23.7748C12.4752 23.0748 3.2502 19.3498 1.5752 18.5498C0.750195 18.1498 0.325195 17.8248 0.325195 17.4998V14.3248C0.325195 14.3248 12.3252 11.6998 14.2752 11.0248C16.2252 10.3248 16.8752 10.2998 18.5252 10.8998C20.1752 11.4998 30.0502 13.2748 31.6752 13.8748V16.9998C31.6752 17.3248 31.3002 17.6748 30.4502 18.1248Z" fill="#A41E11"/>
<path d="M30.4501 14.95C28.7751 15.825 20.1001 19.375 18.2501 20.35C16.4001 21.3 15.3751 21.3 13.9251 20.6C12.4751 19.9 3.25009 16.175 1.57509 15.375C-0.0999112 14.575 -0.124911 14.025 1.50009 13.4C3.12509 12.75 12.3001 9.14996 14.2501 8.47496C16.2001 7.77496 16.8501 7.74996 18.5001 8.34996C20.1501 8.94996 28.7751 12.375 30.4001 12.975C32.0751 13.575 32.1251 14.075 30.4501 14.95Z" fill="#D82C20"/>
<path d="M30.4498 12.7502C28.7748 13.6252 20.0998 17.1752 18.2498 18.1502C16.3998 19.1002 15.3748 19.1002 13.9248 18.4002C12.4748 17.7252 3.2498 14.0002 1.5748 13.2002C0.749805 12.8002 0.299805 12.4752 0.299805 12.1502V8.97516C0.299805 8.97516 12.2998 6.35016 14.2498 5.67516C16.1998 4.97516 16.8498 4.95016 18.4998 5.55016C20.1498 6.15016 30.0248 7.92516 31.6498 8.52516V11.6502C31.6748 11.9752 31.2998 12.3002 30.4498 12.7502Z" fill="#A41E11"/>
<path d="M30.4501 9.57487C28.7751 10.4499 20.1001 13.9999 18.2501 14.9749C16.4001 15.9249 15.3751 15.9249 13.9251 15.2249C12.4751 14.5249 3.25009 10.8249 1.57509 10.0249C-0.0999112 9.22487 -0.124911 8.67487 1.50009 8.04987C3.12509 7.39987 12.3001 3.79987 14.2501 3.12487C16.2001 2.42487 16.8501 2.39987 18.5001 2.99987C20.1501 3.59987 28.7751 7.02487 30.4001 7.62487C32.0751 8.22487 32.1251 8.72487 30.4501 9.57487Z" fill="#D82C20"/>
<path d="M20.0998 6.5251L17.3998 6.8251L16.7748 8.2751L15.7998 6.6501L12.6748 6.3751L14.9998 5.5251L14.2998 4.2251L16.4998 5.0751L18.5498 4.4001L17.9998 5.7501L20.0998 6.5251ZM16.6248 13.6251L11.5498 11.5251L18.8248 10.4251L16.6248 13.6251Z" fill="white"/>
<path d="M9.6001 10.3501C11.7402 10.3501 13.4751 9.67853 13.4751 8.8501C13.4751 8.02167 11.7402 7.3501 9.6001 7.3501C7.45999 7.3501 5.7251 8.02167 5.7251 8.8501C5.7251 9.67853 7.45999 10.3501 9.6001 10.3501Z" fill="white"/>
<path d="M23.3252 6.9248L27.6252 8.6248L23.3252 10.3248V6.9248Z" fill="#7A0C00"/>
<path d="M18.5752 8.8248L23.3252 6.9248V10.3248L22.8502 10.5248L18.5752 8.8248Z" fill="#AD2115"/>
</svg>
