<svg width="32" height="32" viewBox="0 0 32 32" fill="none" xmlns="http://www.w3.org/2000/svg">
<path d="M15.1238 5.29976C15.1238 5.13521 15.1726 4.97435 15.264 4.83753C15.3554 4.70071 15.4853 4.59407 15.6374 4.53109C15.7894 4.46812 15.9567 4.45165 16.1181 4.48375C16.2795 4.51585 16.4277 4.59509 16.5441 4.71145C16.6604 4.82781 16.7397 4.97605 16.7718 5.13745C16.8039 5.29884 16.7874 5.46613 16.7244 5.61815C16.6615 5.77018 16.5548 5.90012 16.418 5.99154C16.2812 6.08297 16.1203 6.13176 15.9558 6.13176C15.8465 6.13189 15.7382 6.11046 15.6372 6.0687C15.5362 6.02693 15.4444 5.96565 15.3672 5.88837C15.2899 5.81108 15.2286 5.71931 15.1868 5.61831C15.1451 5.51731 15.1236 5.40906 15.1238 5.29976ZM5.19976 12.8338C5.19976 12.6692 5.24856 12.5083 5.33998 12.3715C5.4314 12.2347 5.56134 12.1281 5.71337 12.0651C5.8654 12.0021 6.03268 11.9856 6.19408 12.0177C6.35547 12.0499 6.50372 12.1291 6.62007 12.2454C6.73643 12.3618 6.81567 12.5101 6.84777 12.6714C6.87988 12.8328 6.8634 13.0001 6.80043 13.1522C6.73746 13.3042 6.63082 13.4341 6.494 13.5255C6.35717 13.617 6.19632 13.6658 6.03176 13.6658C5.9225 13.6658 5.81431 13.6442 5.71337 13.6024C5.61243 13.5606 5.52071 13.4993 5.44345 13.4221C5.36619 13.3448 5.30491 13.2531 5.26309 13.1522C5.22128 13.0512 5.19976 12.943 5.19976 12.8338ZM25.0558 12.8728C25.0558 12.7082 25.1046 12.5473 25.196 12.4105C25.2874 12.2737 25.4173 12.1671 25.5694 12.1041C25.7214 12.0411 25.8887 12.0246 26.0501 12.0567C26.2115 12.0889 26.3597 12.1681 26.4761 12.2844C26.5924 12.4008 26.6717 12.5491 26.7038 12.7104C26.7359 12.8718 26.7194 13.0391 26.6564 13.1912C26.5935 13.3432 26.4868 13.4731 26.35 13.5645C26.2132 13.656 26.0523 13.7048 25.8878 13.7048C25.7785 13.7049 25.6702 13.6835 25.5692 13.6417C25.4682 13.5999 25.3764 13.5387 25.2992 13.4614C25.2219 13.3841 25.1606 13.2923 25.1188 13.1913C25.0771 13.0903 25.0556 12.9821 25.0558 12.8728ZM7.60476 14.0128C7.78819 13.9309 7.93175 13.7798 8.00408 13.5924C8.07641 13.405 8.07162 13.1966 7.99076 13.0128L7.62176 12.1778H9.07376V18.7228H6.14376C5.78211 17.4527 5.66938 16.1246 5.81176 14.8118L7.60476 14.0128ZM13.6788 14.1738V12.2448H17.1368C17.3158 12.2448 18.3978 12.4508 18.3978 13.2608C18.3978 13.9328 17.5678 14.1738 16.8848 14.1738H13.6788ZM8.95776 24.5608C8.95776 24.3962 9.00656 24.2353 9.09798 24.0985C9.1894 23.9617 9.31934 23.8551 9.47137 23.7921C9.6234 23.7291 9.79068 23.7126 9.95208 23.7447C10.1135 23.7769 10.2617 23.8561 10.3781 23.9724C10.4944 24.0888 10.5737 24.2371 10.6058 24.3984C10.6379 24.5598 10.6214 24.7271 10.5584 24.8792C10.4955 25.0312 10.3888 25.1611 10.252 25.2525C10.1152 25.344 9.95432 25.3928 9.78976 25.3928C9.68046 25.3929 9.57222 25.3715 9.47121 25.3297C9.37021 25.2879 9.27844 25.2267 9.20116 25.1494C9.12387 25.0721 9.06259 24.9803 9.02083 24.8793C8.97906 24.7783 8.95763 24.6701 8.95776 24.5608ZM21.2888 24.5998C21.2888 24.4352 21.3376 24.2743 21.429 24.1375C21.5204 24.0007 21.6503 23.8941 21.8024 23.8311C21.9544 23.7681 22.1217 23.7516 22.2831 23.7837C22.4445 23.8159 22.5927 23.8951 22.7091 24.0114C22.8254 24.1278 22.9047 24.2761 22.9368 24.4374C22.9689 24.5988 22.9524 24.7661 22.8894 24.9182C22.8265 25.0702 22.7198 25.2001 22.583 25.2915C22.4462 25.383 22.2853 25.4318 22.1208 25.4318C21.9001 25.4318 21.6885 25.3441 21.5324 25.1881C21.3764 25.032 21.2888 24.8204 21.2888 24.5998ZM21.5458 22.7128C21.4483 22.6919 21.3477 22.6905 21.2497 22.7086C21.1517 22.7267 21.0583 22.7639 20.9747 22.8181C20.8911 22.8724 20.819 22.9426 20.7626 23.0247C20.7061 23.1068 20.6664 23.1993 20.6458 23.2968L20.2278 25.2458C18.8844 25.8541 17.4255 26.1654 15.9508 26.1583C14.4761 26.1512 13.0203 25.826 11.6828 25.2048L11.2658 23.2558C11.2235 23.0592 11.1051 22.8874 10.9363 22.7781C10.7676 22.6688 10.5624 22.6309 10.3658 22.6728L8.64476 23.0428C8.3249 22.7135 8.02756 22.363 7.75476 21.9938H16.1288C16.2238 21.9938 16.2868 21.9768 16.2868 21.8938V18.9278C16.2868 18.8418 16.2238 18.8278 16.1288 18.8278H13.6788V16.9468H16.3278C16.7226 16.9507 17.1032 17.0949 17.4016 17.3535C17.7 17.6122 17.8968 17.9685 17.9568 18.3588C18.0618 18.7718 18.2928 20.1158 18.4508 20.5458C18.6078 21.0288 19.2508 21.9928 19.9328 21.9928H24.2558C23.9659 22.3814 23.6487 22.749 23.3068 23.0928L21.5458 22.7128ZM26.1958 14.8918C26.2546 15.483 26.2619 16.0782 26.2178 16.6708H25.1668C25.0618 16.6708 25.0188 16.7398 25.0188 16.8428V17.3258C25.0188 18.4618 24.3778 18.7098 23.8188 18.7728C23.2838 18.8328 22.6908 18.5488 22.6188 18.2218C22.5802 17.6554 22.4088 17.1061 22.1185 16.6182C21.8282 16.1304 21.4272 15.7178 20.9478 15.4138C21.9778 14.7598 23.0478 13.7948 23.0478 12.5028C23.0265 11.9538 22.8683 11.4189 22.5874 10.9468C22.3066 10.4747 21.912 10.0804 21.4398 9.79976C20.781 9.37307 20.0232 9.12369 19.2398 9.07576H8.36676C9.86977 7.39582 11.8848 6.25842 14.0998 5.83976L15.3818 7.18376C15.4504 7.25589 15.5326 7.31377 15.6237 7.35412C15.7147 7.39446 15.8128 7.41646 15.9124 7.41888C16.0119 7.42129 16.111 7.40407 16.2039 7.36819C16.2968 7.33231 16.3817 7.27847 16.4538 7.20976L17.8878 5.83776C19.3499 6.11207 20.7347 6.70142 21.9462 7.56486C23.1576 8.4283 24.1665 9.54513 24.9028 10.8378L23.9208 13.0548C23.8402 13.2387 23.8355 13.4469 23.9078 13.6343C23.9801 13.8216 24.1235 13.9727 24.3068 14.0548L26.1958 14.8918ZM28.6438 14.9278L28.6108 14.5848L29.6218 13.6418C29.6601 13.6019 29.6901 13.5549 29.7102 13.5033C29.7303 13.4518 29.74 13.3968 29.7388 13.3416C29.7376 13.2863 29.7255 13.2318 29.7032 13.1812C29.6809 13.1306 29.6488 13.0849 29.6088 13.0468C29.5734 13.013 29.5324 12.9857 29.4878 12.9658L28.1998 12.4828L28.0998 12.1488L28.9058 11.0288C28.9653 10.9344 28.985 10.8203 28.9607 10.7114C28.9363 10.6025 28.8698 10.5077 28.7758 10.4478C28.7348 10.4221 28.6899 10.4035 28.6428 10.3928L27.2798 10.1708L27.1158 9.86476L27.6888 8.60776C27.709 8.55655 27.719 8.50185 27.7181 8.44678C27.7172 8.39171 27.7055 8.33736 27.6835 8.28683C27.6616 8.23631 27.63 8.1906 27.5904 8.15232C27.5508 8.11405 27.504 8.08395 27.4528 8.06376C27.4062 8.0456 27.3568 8.03578 27.3068 8.03476L25.9238 8.08276L25.6998 7.81876L26.0178 6.47176C26.0272 6.41726 26.0259 6.36142 26.0138 6.30745C26.0017 6.25347 25.979 6.2024 25.9472 6.15718C25.9153 6.11195 25.8749 6.07344 25.8281 6.04386C25.7814 6.01427 25.7293 5.99419 25.6748 5.98476C25.6271 5.97676 25.5784 5.97676 25.5308 5.98476L24.1828 6.29976L23.9168 6.08076L23.9658 4.69976C23.9645 4.64447 23.9523 4.58998 23.9299 4.53939C23.9076 4.48881 23.8754 4.44313 23.8354 4.40496C23.7954 4.36679 23.7482 4.33689 23.6966 4.31695C23.6451 4.29701 23.5901 4.28743 23.5348 4.28876C23.4865 4.29004 23.4388 4.29951 23.3938 4.31676L22.1368 4.88976L21.8308 4.72576L21.6088 3.36276C21.5841 3.25456 21.5178 3.16045 21.4242 3.1009C21.3305 3.04135 21.2172 3.02117 21.1088 3.04476C21.0617 3.05549 21.0167 3.07409 20.9758 3.09976L19.8548 3.90576L19.5218 3.80576L19.0388 2.51276C18.9936 2.41068 18.9098 2.33069 18.8058 2.29037C18.7017 2.25005 18.5859 2.25271 18.4838 2.29776C18.4397 2.31768 18.3991 2.3447 18.3638 2.37776L17.4178 3.38976L17.0748 3.35676L16.3468 2.17976C16.3079 2.12467 16.2564 2.07971 16.1965 2.04869C16.1366 2.01766 16.0702 2.00146 16.0028 2.00146C15.9353 2.00146 15.8689 2.01766 15.809 2.04869C15.7492 2.07971 15.6976 2.12467 15.6588 2.17976L14.9308 3.35676L14.5878 3.38976L13.6448 2.37776C13.5639 2.30088 13.4557 2.25928 13.3442 2.26209C13.2326 2.2649 13.1267 2.3119 13.0498 2.39276C13.0167 2.42811 12.9897 2.46865 12.9698 2.51276L12.4828 3.79976L12.1498 3.89976L11.0298 3.09976C10.9354 3.04022 10.8213 3.02048 10.7124 3.04484C10.6035 3.0692 10.5087 3.13569 10.4488 3.22976C10.4231 3.27069 10.4045 3.31565 10.3938 3.36276L10.1718 4.72576L9.86576 4.88976L8.60776 4.31676C8.50391 4.27655 8.38836 4.27912 8.2864 4.32392C8.18445 4.36871 8.10439 4.45207 8.06376 4.55576C8.04651 4.60188 8.03705 4.65054 8.03576 4.69976L8.08376 6.08276L7.81776 6.29976L6.47076 5.98376C6.41626 5.97428 6.36042 5.97563 6.30645 5.98774C6.25247 5.99985 6.2014 6.02248 6.15618 6.05433C6.11095 6.08619 6.07244 6.12664 6.04286 6.17339C6.01327 6.22013 5.99319 6.27225 5.98376 6.32676C5.97576 6.37443 5.97576 6.42309 5.98376 6.47076L6.29976 7.81876L6.08176 8.08376L4.69976 8.03576C4.63226 8.03752 4.56616 8.05546 4.50703 8.08806C4.4479 8.12066 4.39745 8.16697 4.35992 8.22311C4.3224 8.27925 4.2989 8.34357 4.29138 8.41068C4.28387 8.47779 4.29258 8.54572 4.31676 8.60876L4.88976 9.86576L4.72576 10.1718L3.36276 10.3938C3.25442 10.4181 3.16015 10.4844 3.10056 10.5781C3.04096 10.6718 3.0209 10.7853 3.04476 10.8938C3.05549 10.9409 3.07409 10.9858 3.09976 11.0268L3.90576 12.1468L3.80576 12.4808L2.51276 12.9638C2.41068 13.0089 2.33069 13.0927 2.29037 13.1968C2.25005 13.3008 2.25271 13.4166 2.29776 13.5188C2.3174 13.5636 2.34482 13.6045 2.37876 13.6398L3.38976 14.5828L3.35676 14.9258L2.17976 15.6538C2.12467 15.6926 2.07971 15.7442 2.04869 15.804C2.01766 15.8639 2.00146 15.9303 2.00146 15.9978C2.00146 16.0652 2.01766 16.1316 2.04869 16.1915C2.07971 16.2514 2.12467 16.3029 2.17976 16.3418L3.35676 17.0698L3.38976 17.4128L2.37876 18.3558C2.30188 18.4367 2.26028 18.5448 2.26309 18.6564C2.2659 18.7679 2.3129 18.8738 2.39376 18.9508C2.42874 18.9838 2.46895 19.0108 2.51276 19.0308L3.80576 19.5138L3.90576 19.8478L3.09976 20.9718C3.0702 21.0185 3.05013 21.0706 3.04071 21.1251C3.03129 21.1796 3.03271 21.2355 3.04487 21.2894C3.05704 21.3434 3.07972 21.3944 3.11161 21.4396C3.14351 21.4848 3.184 21.5232 3.23076 21.5528C3.27169 21.5784 3.31665 21.597 3.36376 21.6078L4.72676 21.8298L4.89076 22.1368L4.31776 23.3938C4.27757 23.4979 4.28025 23.6137 4.32523 23.7158C4.37021 23.818 4.45382 23.8981 4.55776 23.9388C4.60353 23.956 4.65187 23.9655 4.70076 23.9668L6.08376 23.9188L6.30276 24.1848L5.98576 25.5328C5.96659 25.6424 5.99173 25.7552 6.05567 25.8463C6.11961 25.9375 6.21712 25.9995 6.32676 26.0188C6.37502 26.0277 6.42451 26.0277 6.47276 26.0188L7.81776 25.6998L8.08376 25.9178L8.03476 27.2998C8.03593 27.3549 8.04796 27.4092 8.07017 27.4597C8.09238 27.5101 8.12432 27.5557 8.16417 27.5938C8.20403 27.6319 8.251 27.6617 8.30241 27.6816C8.35382 27.7015 8.40865 27.7111 8.46376 27.7098C8.51271 27.709 8.56113 27.6995 8.60676 27.6818L9.86376 27.1088L10.1698 27.2728L10.3918 28.6348C10.4162 28.7431 10.4824 28.8375 10.5761 28.8973C10.6697 28.957 10.7832 28.9773 10.8918 28.9538C10.939 28.9435 10.984 28.9249 11.0248 28.8988L12.1448 28.0918L12.4788 28.1918L12.9618 29.4838C13.0073 29.5857 13.0913 29.6655 13.1955 29.7056C13.2998 29.7457 13.4156 29.7429 13.5178 29.6978C13.5616 29.6778 13.6018 29.6508 13.6368 29.6178L14.5798 28.6068L14.9228 28.6408L15.6508 29.8178C15.7155 29.9089 15.8138 29.9707 15.9241 29.9894C16.0343 30.0082 16.1475 29.9824 16.2388 29.9178C16.2776 29.8904 16.3114 29.8566 16.3388 29.8178L17.0668 28.6408L17.4098 28.6068L18.3528 29.6178C18.4337 29.6946 18.5418 29.7362 18.6534 29.7334C18.7649 29.7306 18.8708 29.6836 18.9478 29.6028C18.9808 29.5678 19.0078 29.5276 19.0278 29.4838L19.5108 28.1918L19.8448 28.0918L20.9648 28.8988C21.0115 28.9283 21.0636 28.9484 21.1181 28.9578C21.1726 28.9672 21.2285 28.9658 21.2824 28.9536C21.3364 28.9415 21.3874 28.9188 21.4326 28.8869C21.4778 28.855 21.5162 28.8145 21.5458 28.7678C21.5714 28.7268 21.59 28.6819 21.6008 28.6348L21.8228 27.2728L22.1288 27.1088L23.3858 27.6818C23.4896 27.722 23.6052 27.7194 23.7071 27.6746C23.8091 27.6298 23.8891 27.5464 23.9298 27.4428C23.947 27.397 23.9565 27.3487 23.9578 27.2998L23.9098 25.9158L24.1748 25.6978L25.5218 26.0148C25.6314 26.034 25.7442 26.009 25.8354 25.9453C25.9267 25.8816 25.989 25.7843 26.0088 25.6748C26.0168 25.6264 26.0168 25.5771 26.0088 25.5288L25.6998 24.1828L25.9178 23.9168L27.3008 23.9648C27.4123 23.9619 27.518 23.9149 27.5949 23.8341C27.6718 23.7533 27.7134 23.6453 27.7108 23.5338C27.7101 23.4851 27.7007 23.437 27.6828 23.3918L27.1098 22.1348L27.2738 21.8278L28.6368 21.6058C28.7451 21.5814 28.8395 21.5151 28.8993 21.4215C28.959 21.3278 28.9793 21.2143 28.9558 21.1058C28.9449 21.0579 28.9259 21.0123 28.8998 20.9708L28.0938 19.8508L28.1938 19.5168L29.4868 19.0338C29.5373 19.0115 29.5829 18.9795 29.6211 18.9397C29.6592 18.8998 29.6891 18.8528 29.7091 18.8013C29.729 18.7499 29.7387 18.695 29.7374 18.6398C29.7362 18.5846 29.724 18.5303 29.7018 18.4798C29.6821 18.435 29.6547 18.394 29.6208 18.3588L28.6098 17.4158L28.6428 17.0728L29.8198 16.3448C29.8749 16.3059 29.9198 16.2544 29.9508 16.1945C29.9819 16.1346 29.9981 16.0682 29.9981 16.0008C29.9981 15.9333 29.9819 15.8669 29.9508 15.807C29.9198 15.7472 29.8749 15.6956 29.8198 15.6568L28.6438 14.9278Z" fill="url(#paint0_radial_42_32801)"/>
<defs>
<radialGradient id="paint0_radial_42_32801" cx="0" cy="0" r="1" gradientUnits="userSpaceOnUse" gradientTransform="translate(16.0145 16.3367) rotate(-30.0007) scale(13.9977 8.40346)">
<stop stop-color="#7D7D7D"/>
<stop offset="0.267" stop-color="#7E7C7A"/>
<stop offset="0.45" stop-color="#817871"/>
<stop offset="0.608" stop-color="#867162"/>
<stop offset="0.753" stop-color="#8D684C"/>
<stop offset="0.886" stop-color="#965C30"/>
<stop offset="1" stop-color="#A04F12"/>
</radialGradient>
</defs>
</svg>
