<svg width="32" height="32" viewBox="0 0 32 32" fill="none" xmlns="http://www.w3.org/2000/svg">
<path d="M26.8364 0.50309L25.1079 0.61084L25.2426 4.20509C25.2496 4.40384 25.0204 4.51984 24.8641 4.39659L23.7066 3.48409L22.3354 4.52459C22.3001 4.5514 22.2579 4.56761 22.2137 4.57132C22.1695 4.57502 22.1252 4.56607 22.0859 4.54551C22.0466 4.52495 22.014 4.49364 21.9918 4.45522C21.9697 4.41681 21.959 4.37289 21.9609 4.32859L22.1151 0.79784L4.96813 1.87009C4.56024 1.89551 4.17844 2.07937 3.90426 2.38242C3.63007 2.68547 3.48522 3.0837 3.50063 3.49209L4.46563 29.2016C4.48036 29.5944 4.64228 29.9673 4.91924 30.2463C5.19619 30.5252 5.56793 30.6898 5.96063 30.7073L26.8636 31.6458C27.0749 31.6552 27.2859 31.6217 27.484 31.5473C27.682 31.473 27.8629 31.3594 28.0159 31.2133C28.1689 31.0673 28.2907 30.8917 28.3739 30.6972C28.4571 30.5027 28.4999 30.2934 28.4999 30.0818V2.06609C28.5 1.85217 28.4562 1.64051 28.3713 1.44417C28.2864 1.24783 28.1621 1.071 28.0061 0.92459C27.8503 0.778103 27.6661 0.665121 27.4649 0.592623C27.2637 0.520126 27.0498 0.489654 26.8364 0.50309ZM16.4714 5.79984C20.5484 5.79984 22.7749 7.98059 22.7749 12.1296C22.2239 12.5578 18.1199 12.8496 18.1199 12.2403C18.2064 9.91534 17.1656 9.81359 16.5874 9.81359C16.0379 9.81359 15.1126 9.97909 15.1126 11.2246C15.1126 14.2966 23.0351 14.1308 23.0351 20.3306C23.0351 23.8181 20.2014 25.7443 16.5874 25.7443C12.8574 25.7443 9.59813 24.2353 9.96613 19.0036C10.1106 18.3893 14.8524 18.5353 14.8524 19.0036C14.7949 21.1623 15.2861 21.7973 16.5291 21.7973C17.4834 21.7973 17.9174 21.2716 17.9174 20.3858C17.9174 17.2306 10.1106 17.1201 10.1106 11.3356C10.1106 8.01434 12.3949 5.79984 16.4714 5.79984Z" fill="#FF4785"/>
</svg>
