<svg width="53" height="32" viewBox="0 0 53 32" fill="none" xmlns="http://www.w3.org/2000/svg">
<g clip-path="url(#clip0_42_32807)">
<path d="M8.01616 24.8487C9.36524 23.2351 9.52392 21.5685 8.4791 18.4736C7.81777 16.516 6.71991 15.0082 7.52672 13.7914C8.38645 12.4952 10.2117 13.7518 8.69071 15.4844L8.99486 15.6961C10.8202 15.9077 11.7195 13.4078 10.3571 12.6937C6.75963 10.8155 3.61175 14.4263 5.00044 18.6058C5.59575 20.3781 6.42897 22.2563 5.75443 23.7509C5.17243 25.0339 4.04827 25.7878 3.29429 25.8142C1.72039 25.8936 2.76532 22.2828 4.57733 21.3833C4.73601 21.3041 4.96082 21.1982 4.74922 20.9337C2.51399 20.6824 1.20453 21.714 0.450654 23.1557C-1.74495 27.3484 4.61695 28.8959 8.01616 24.8487ZM47.2985 12.5217C47.8143 13.7915 48.5947 15.0479 48.1318 16.1589C47.7482 17.1113 47.2455 17.508 46.69 17.6006C45.9098 17.7329 46.1214 15.286 47.4572 14.5586C47.5762 14.4925 47.7482 14.175 47.5895 13.9898C45.8964 13.8973 44.9442 14.704 44.4283 15.7754C42.9338 18.91 47.8142 19.7698 50.2083 16.688C51.1606 15.4579 51.2002 14.2411 50.2876 12.0322C49.7057 10.6303 48.8195 9.58539 49.375 8.65952C49.9703 7.68083 51.3986 8.52736 50.3273 9.83671L50.5654 9.96898C51.9541 10.0483 52.523 8.19669 51.4647 7.73376C48.674 6.54335 46.0684 9.54577 47.2985 12.5217ZM29.6281 9.17538C28.6626 8.40829 25.9511 9.69124 25.184 11.5958C24.2184 14.0162 22.79 17.5478 21.388 19.0952C19.9067 20.722 19.7612 19.4656 19.9067 18.5265C20.2505 16.3177 22.4064 11.199 23.5836 9.75737C23.1471 9.10925 20.2901 9.20189 18.3062 12.2836C17.5657 13.4475 15.8726 17.3229 13.9945 20.3781C13.5845 21.0395 13.0686 20.5765 13.4654 19.029C13.9151 17.2435 15.2377 12.3365 16.944 8.47443C21.4144 7.58828 26.1627 6.96657 29.7999 6.95336C30.2894 6.82109 30.6201 6.38468 29.7999 6.35816C26.6654 6.25241 21.9568 6.6227 17.5524 7.17828C18.3989 5.48522 19.3115 4.13614 20.2373 3.56746C19.2321 2.93254 17.1953 3.18386 16.0313 4.90333C15.5155 5.67041 14.9997 6.59628 14.5103 7.60149C11.283 8.10404 8.51872 8.67283 7.11681 9.20189C5.66188 9.75737 5.82056 11.5165 6.7067 11.1859C8.54523 10.4981 11.0318 9.78379 13.7961 9.14897C12.037 13.117 10.6614 17.799 10.3307 19.7036C9.51072 24.3329 12.3808 24.3064 13.7829 22.4812C15.3038 20.484 18.4782 13.4607 18.9676 12.7201C19.1131 12.4687 19.3115 12.601 19.2057 12.8259C15.661 19.902 15.9652 22.6399 18.8353 22.0315C20.1316 21.7537 22.3668 19.5317 22.9487 18.381C23.0677 18.1032 23.3191 18.1297 23.2661 18.2488C21.0177 24.0816 18.1608 28.8034 16.2429 30.2847C14.497 31.6206 13.2009 28.724 19.3776 24.5709C20.2902 23.9492 19.8669 23.1028 18.8353 23.3937C15.6478 23.8964 6.52161 26.7929 2.51399 29.5705C2.20974 29.7821 1.932 29.954 1.94521 30.3906C1.95841 30.6418 2.39493 30.5492 2.60654 30.417C7.79125 27.3088 12.0369 26.0919 16.9042 25.0735C16.9704 25.0999 17.0497 25.1131 17.1158 25.0867C17.3408 25.0339 17.3276 25.1528 17.182 25.2455C16.8513 25.4307 16.5206 25.6026 16.4414 25.6291C13.1612 26.912 11.1772 29.7423 11.8782 31.1841C12.4735 32.4274 15.6874 31.9777 17.2085 31.1577C20.9383 29.134 23.6497 25.166 25.5014 19.6905C27.115 14.8363 29.1519 9.33416 29.6281 9.17538ZM51.3061 20.3781C45.2352 19.5845 32.141 20.6427 26.3611 22.1769C24.6417 22.6267 25.1179 23.5392 25.9908 23.3673C26.004 23.3673 26.3743 23.2747 26.3876 23.2747C31.1358 22.3489 42.656 21.5421 49.375 22.8251C50.1818 22.9705 52.6022 20.5501 51.3061 20.3781ZM31.321 19.664C33.014 18.8174 35.527 13.5798 37.1803 10.7097C37.2993 10.498 37.5109 10.67 37.392 10.8155C33.2124 18.0106 34.9847 18.844 36.638 18.7381C38.8468 18.6058 40.8837 15.4314 41.3333 14.7173C41.5185 14.4395 41.6244 14.6644 41.5185 14.8627C41.4128 15.1934 41.0292 15.7754 40.672 16.569C40.1695 17.6932 40.6984 18.1297 41.1349 18.3281C41.8227 18.6588 43.7009 18.4472 43.9919 17.2964C42.1137 17.2568 46.6107 8.39509 47.0736 7.85282C45.8171 7.12535 43.8728 7.91885 42.9867 9.66483C41.0953 13.4078 39.5081 16.4234 38.5161 16.4764C36.5852 16.5822 40.7381 8.13056 41.4128 7.86602C41.0027 7.27082 38.3707 7.52215 36.9025 9.7971C36.3734 10.6171 33.1462 16.3309 32.3527 17.27C30.9507 18.9365 30.8449 17.5081 31.2417 15.8415C31.3739 15.2728 31.5987 14.5453 31.8898 13.7385C32.8156 11.6488 33.8076 10.9875 34.416 10.313C38.5029 5.77627 40.844 2.09932 39.9181 0.65759C39.0981 -0.625356 36.3602 -0.0565691 34.6012 2.58876C31.3607 7.44281 28.3715 14.0956 27.9879 17.1377C27.6176 20.1797 29.8265 20.4046 31.321 19.664ZM33.0405 10.7626C33.1859 10.4319 33.2785 10.3394 33.5298 9.78379C34.9847 6.58308 36.81 3.21028 38.0665 1.63638C38.8468 0.816371 39.9446 1.92733 37.9606 4.96946C36.7968 6.76817 35.4741 8.4215 34.0325 9.87643V9.88964C33.6621 10.2996 33.3315 10.6435 33.1859 10.8419C33.0801 10.9742 32.9611 10.9478 33.0405 10.7626Z" fill="#333333"/>
</g>
<defs>
<clipPath id="clip0_42_32807">
<rect width="52.0127" height="32" fill="white"/>
</clipPath>
</defs>
</svg>
