<svg width="32" height="32" viewBox="0 0 32 32" fill="none" xmlns="http://www.w3.org/2000/svg">
<g clip-path="url(#clip0_42_32797)">
<path d="M27.6075 4.23403C24.6382 -0.0189705 18.7725 -1.27947 14.5325 1.42403L7.08448 6.17403C6.07661 6.80636 5.21182 7.64209 4.54543 8.62777C3.87905 9.61345 3.42573 10.7274 3.21448 11.8983C3.1203 12.4238 3.07236 12.9597 3.07148 13.4973C3.07602 14.955 3.43309 16.3899 4.11223 17.6798C3.47555 18.6479 3.0411 19.7348 2.83498 20.875C2.62374 22.067 2.65332 23.3026 2.92123 24.478C3.18931 25.6612 3.69077 26.779 4.39623 27.766C7.36573 32.0185 13.2447 33.2793 17.4712 30.576L24.9117 25.8258C25.919 25.1926 26.7826 24.3558 27.4473 23.3691C28.112 22.3824 28.5629 21.2676 28.7712 20.0963C28.8669 19.5695 28.9148 19.0352 28.9142 18.4998C28.9125 17.0449 28.5599 15.6118 27.8862 14.3223C28.5228 13.355 28.9575 12.2691 29.1642 11.1298C29.2565 10.6023 29.3035 10.0685 29.3047 9.53328C29.3052 7.63468 28.7119 5.78347 27.608 4.23878L27.6075 4.23403Z" fill="#FF3E00"/>
<path d="M13.8048 28.1655C13.3155 28.2916 12.8166 28.3553 12.3163 28.3555C11.3608 28.3554 10.4197 28.1237 9.57346 27.6801C8.72723 27.2366 8.00118 26.5944 7.4575 25.8088C6.79348 24.8796 6.43682 23.7659 6.4375 22.6238C6.43793 22.3018 6.46582 21.9807 6.52075 21.6655C6.5655 21.4284 6.62568 21.1958 6.70075 20.97L6.841 20.543L7.221 20.832C8.1029 21.4797 9.08842 21.9729 10.1355 22.2905L10.4115 22.3738L10.3855 22.6498V22.793C10.3849 23.1384 10.4922 23.4752 10.6925 23.7565C10.8542 23.9961 11.072 24.1924 11.327 24.3285C11.588 24.4663 11.87 24.5375 12.155 24.5378C12.3055 24.5384 12.4555 24.5192 12.6025 24.4805C12.762 24.4388 12.9162 24.3713 13.0608 24.28L20.5008 19.5065C20.7239 19.3649 20.9075 19.1691 21.0344 18.9373C21.1614 18.7055 21.2275 18.4453 21.2268 18.181C21.2246 17.8357 21.1144 17.4997 20.9118 17.22C20.7475 16.9836 20.5286 16.7905 20.2735 16.657C20.0123 16.5223 19.7309 16.4534 19.4468 16.4545C19.2963 16.454 19.1462 16.4733 18.9993 16.512C18.8404 16.5528 18.687 16.6202 18.5438 16.7123L15.7073 18.5248C15.2299 18.8256 14.7214 19.0488 14.1953 19.1888C13.0235 19.4938 11.7863 19.4316 10.6511 19.0106C9.51586 18.5896 8.5373 17.8301 7.84775 16.8348C7.18455 15.9052 6.82797 14.7917 6.82775 13.6498C6.82825 13.3285 6.85625 13.008 6.911 12.6915C7.03826 11.9878 7.31033 11.3182 7.70996 10.7251C8.10958 10.1321 8.62805 9.62848 9.2325 9.2463L16.6805 4.4988C17.1478 4.2012 17.6576 3.97638 18.1925 3.83205C18.6789 3.70742 19.1789 3.64443 19.681 3.64455C20.6384 3.64241 21.5821 3.87257 22.431 4.31527C23.2799 4.75798 24.0087 5.40001 24.555 6.1863C25.2143 7.11809 25.5664 8.23237 25.5623 9.3738C25.5617 9.69672 25.5338 10.0187 25.4788 10.3348C25.4342 10.5719 25.3742 10.8043 25.2993 11.03L25.1588 11.457L24.7788 11.1785C23.8974 10.5299 22.9118 10.0366 21.8643 9.72005L21.5883 9.6343L21.6143 9.35805V9.21505C21.6142 8.86898 21.5069 8.53143 21.3073 8.2488C21.1432 8.01261 20.9245 7.81962 20.6698 7.6863C20.4092 7.55152 20.1284 7.48235 19.8448 7.48305C19.6956 7.48625 19.5473 7.50897 19.4023 7.5508C19.2425 7.59093 19.0883 7.65845 18.9445 7.7513L11.4963 12.4988C11.3196 12.6091 11.1635 12.7613 11.0373 12.9463C10.9195 13.119 10.837 13.3225 10.7965 13.5405C10.7781 13.6311 10.7667 13.7235 10.7625 13.8165C10.7623 14.161 10.8696 14.497 11.0695 14.7775C11.2333 15.0138 11.452 15.2068 11.7068 15.34C11.9674 15.4749 12.2483 15.544 12.532 15.543C12.6825 15.5436 12.8325 15.5243 12.9795 15.4855C13.1393 15.4451 13.2936 15.3776 13.4378 15.2853L16.2795 13.4623C16.7567 13.161 17.2652 12.9377 17.7915 12.7983C18.2808 12.6723 18.7797 12.6087 19.28 12.6083C20.2356 12.6082 21.1769 12.8396 22.0236 13.2827C22.8702 13.7257 23.5969 14.3673 24.1415 15.1525C24.5662 15.7477 24.8676 16.4217 25.028 17.135C25.1885 17.8482 25.2047 18.5864 25.0758 19.306C24.9492 20.01 24.6774 20.6799 24.2778 21.2731C23.8781 21.8663 23.3592 22.3697 22.7543 22.7513L15.3193 27.4988C14.8414 27.801 14.3319 28.0252 13.8048 28.1655Z" fill="white"/>
</g>
<defs>
<clipPath id="clip0_42_32797">
<rect width="32" height="32" fill="white"/>
</clipPath>
</defs>
</svg>
