<svg width="32" height="32" viewBox="0 0 32 32" fill="none" xmlns="http://www.w3.org/2000/svg">
<g clip-path="url(#clip0_70_33338)">
<path d="M0 9.5C0 4.25 4.25 0 9.5 0H22.5C27.75 0 32 4.25 32 9.5V22.5C32 27.75 27.75 32 22.5 32H9.5C4.25 32 0 27.75 0 22.5V9.5Z" fill="#398CCB"/>
<path d="M15.975 4.7002L20.4 7.2502V8.6502L25.775 11.7752V17.0752L27.225 17.9002V23.0502L22.8 25.6002L20.825 24.4502L16.025 27.2252L11.25 24.4752L9.325 25.6002L4.875 23.0252V17.9002L6.275 17.1002V11.7752L11.525 8.7252V7.2502L15.975 4.7002ZM20.425 10.0002V12.4002L15.975 14.9502L11.55 12.4002V10.0752L7.425 12.4502V16.4502L9.325 15.3502L13.775 17.9252V23.0502L12.425 23.8252L16.05 25.9002L19.675 23.8002L18.35 23.0502V17.9252L22.8 15.3502L24.65 16.4252V12.4502L20.425 10.0002ZM22.225 23.9502V20.8002L19.525 19.2502V22.3752L22.225 23.9502ZM26.075 19.2502L23.375 20.8252V23.9502L26.075 22.3752V19.2502ZM8.75 23.9502V20.8252L6.025 19.2502V22.3752L8.75 23.9502ZM12.625 19.2752L9.925 20.8252V23.9502L12.625 22.4002V19.2752ZM22.8 19.8502L25.525 18.2752L22.8 16.7252L20.1 18.2752L22.8 19.8502ZM9.325 16.7252L6.625 18.2752L9.325 19.8502L12.025 18.2752L9.325 16.7252ZM15.4 13.3252V10.2002L12.7 8.6502V11.7752L15.4 13.3252ZM19.275 8.6252L16.55 10.2002V13.3252L19.275 11.7502V8.6252ZM15.975 9.2002L18.7 7.6252L15.975 6.0752L13.275 7.6252L15.975 9.2002Z" fill="white"/>
</g>
<defs>
<clipPath id="clip0_70_33338">
<rect width="32" height="32" fill="white"/>
</clipPath>
</defs>
</svg>
