<svg width="32" height="32" viewBox="0 0 32 32" fill="none" xmlns="http://www.w3.org/2000/svg">
<path d="M22.8599 11.09L16.3099 20.55C16.2405 20.6472 16.1427 20.7205 16.0299 20.76C15.9133 20.8004 15.7865 20.8004 15.6699 20.76C15.5529 20.7236 15.451 20.6498 15.3799 20.55C15.3141 20.4456 15.2826 20.3232 15.2899 20.2L15.5499 15L11.3199 14.1C11.2313 14.0804 11.1488 14.0392 11.0799 13.98C11.0073 13.9229 10.9519 13.8467 10.9199 13.76C10.8952 13.6717 10.8952 13.5783 10.9199 13.49C10.9276 13.3986 10.9624 13.3115 11.0199 13.24L17.5599 3.78C17.6305 3.67745 17.7322 3.60031 17.8499 3.56C17.9632 3.52037 18.0866 3.52037 18.1999 3.56C18.3177 3.60031 18.4194 3.67745 18.4899 3.78C18.5585 3.87944 18.5903 3.99965 18.5799 4.12L18.3199 9.34L22.5499 10.24C22.6417 10.2592 22.7275 10.3004 22.7999 10.36C22.8673 10.422 22.9217 10.4968 22.9599 10.58C22.99 10.6672 23.0002 10.7601 22.9898 10.8518C22.9795 10.9435 22.9487 11.0317 22.8999 11.11L22.8599 11.09Z" fill="#FCC72B"/>
<path d="M16.0002 28.49C15.8289 28.4867 15.6595 28.4529 15.5002 28.39C15.3388 28.3232 15.1926 28.2246 15.0702 28.1L8.88016 21.91C8.75979 21.791 8.66423 21.6493 8.599 21.4931C8.53377 21.3369 8.50018 21.1693 8.50016 21C8.49746 20.826 8.52976 20.6531 8.59514 20.4917C8.66052 20.3304 8.75765 20.1838 8.88076 20.0607C9.00388 19.9375 9.15047 19.8404 9.31184 19.775C9.47321 19.7096 9.64607 19.6773 9.82016 19.68C9.99415 19.6783 10.1668 19.711 10.3281 19.7762C10.4894 19.8414 10.6363 19.9379 10.7602 20.06L16.0002 25.29L27.4302 13.86C27.5541 13.7379 27.7009 13.6414 27.8622 13.5762C28.0235 13.511 28.1962 13.4783 28.3702 13.48C28.5433 13.4804 28.7146 13.515 28.8742 13.582C29.0338 13.6489 29.1786 13.7468 29.3002 13.87C29.4243 13.9909 29.5228 14.1356 29.5898 14.2954C29.6568 14.4551 29.6909 14.6268 29.6902 14.8C29.6889 15.1476 29.5526 15.4811 29.3102 15.73L16.9402 28.1C16.8158 28.2223 16.6701 28.3206 16.5102 28.39C16.3476 28.4538 16.1748 28.4877 16.0002 28.49Z" fill="#729B1B"/>
<path d="M16.0001 28.49C16.1714 28.4867 16.3407 28.4529 16.5001 28.39C16.6614 28.3232 16.8077 28.2246 16.9301 28.1L23.1201 21.91C23.2404 21.791 23.336 21.6493 23.4012 21.4931C23.4665 21.3369 23.5001 21.1693 23.5001 21C23.5028 20.826 23.4705 20.6531 23.4051 20.4917C23.3397 20.3304 23.2426 20.1838 23.1195 20.0607C22.9964 19.9375 22.8498 19.8404 22.6884 19.775C22.527 19.7096 22.3542 19.6773 22.1801 19.68C22.0061 19.6783 21.8335 19.711 21.6721 19.7762C21.5108 19.8414 21.364 19.9379 21.2401 20.06L16.0001 25.29L4.57007 13.86C4.44617 13.7379 4.29933 13.6414 4.13801 13.5762C3.97669 13.511 3.80407 13.4783 3.63007 13.48C3.45698 13.4804 3.28567 13.515 3.12604 13.582C2.96641 13.6489 2.82163 13.7468 2.70007 13.87C2.57594 13.9909 2.47743 14.1356 2.41043 14.2954C2.34342 14.4551 2.30929 14.6268 2.31007 14.8C2.31134 15.1476 2.44759 15.4811 2.69007 15.73L15.0601 28.1C15.1844 28.2223 15.3301 28.3206 15.4901 28.39C15.6527 28.4538 15.8254 28.4877 16.0001 28.49Z" fill="#729B1B" fill-opacity="0.5"/>
</svg>
