<svg width="32" height="32" viewBox="0 0 32 32" fill="none" xmlns="http://www.w3.org/2000/svg">
<g clip-path="url(#clip0_42_32792)">
<path d="M7.86427 5.65918H24.3667L29.2023 10.5882L15.5201 25.5501L2.79541 10.5882L7.86427 5.65918Z" fill="#18253F"/>
<path d="M18.8366 22.0161H12.3685L9.44727 18.5244L17.7257 18.5242L17.726 18.0288H22.4581L18.8366 22.0161Z" fill="#274D82"/>
<path d="M27.8138 9.18228L9.96671 19.2423L7.63857 16.3987L21.4552 8.6103L21.2014 8.18102L24.8816 6.10662L27.8138 9.18228ZM18.2517 5.66398L4.85075 13.2178L2.7666 10.6777L11.739 5.62012L18.2517 5.66398Z" fill="#274D82"/>
<g filter="url(#filter0_d_42_32792)">
<path d="M25.0118 4.17871H7.23645L0.742188 10.4867L15.4866 27.8215L16.6629 26.5329L31.2578 10.546L25.0118 4.17871ZM24.3625 5.66387L29.1869 10.5821L15.5275 25.5446L2.80078 10.5821L7.86432 5.66387H24.3625Z" fill="black"/>
</g>
<path d="M25.0118 4.17871H7.23645L0.742188 10.4867L15.4866 27.8215L16.6629 26.5329L31.2578 10.546L25.0118 4.17871ZM24.3625 5.66387L29.1869 10.5821L15.5275 25.5446L2.80078 10.5821L7.86432 5.66387H24.3625Z" fill="black"/>
</g>
<defs>
<filter id="filter0_d_42_32792" x="-2.25781" y="1.17871" width="38.5156" height="31.6431" filterUnits="userSpaceOnUse" color-interpolation-filters="sRGB">
<feFlood flood-opacity="0" result="BackgroundImageFix"/>
<feColorMatrix in="SourceAlpha" type="matrix" values="0 0 0 0 0 0 0 0 0 0 0 0 0 0 0 0 0 0 127 0" result="hardAlpha"/>
<feOffset dx="1" dy="1"/>
<feGaussianBlur stdDeviation="2"/>
<feColorMatrix type="matrix" values="0 0 0 0 0 0 0 0 0 0 0 0 0 0 0 0 0 0 0.36 0"/>
<feBlend mode="normal" in2="BackgroundImageFix" result="effect1_dropShadow_42_32792"/>
<feBlend mode="normal" in="SourceGraphic" in2="effect1_dropShadow_42_32792" result="shape"/>
</filter>
<clipPath id="clip0_42_32792">
<rect width="32" height="32" fill="white"/>
</clipPath>
</defs>
</svg>
